<svg xmlns="http://www.w3.org/2000/svg" viewBox="0 15.449999809265137 21.190000534057617 43.75" data-asc="1.17626953125" width="21.190000534057617" height="43.75"><defs/><g fill="#ffffff"><g transform="translate(0, 0)"><path d="M10.35 59.20Q5.69 59.20 2.84 56.30Q0 53.39 0 48.17L0 28.34Q0 22.09 2.48 18.77Q4.96 15.45 10.55 15.45Q13.60 15.45 15.98 16.58Q18.36 17.70 19.73 19.93Q21.09 22.17 21.09 25.56L21.09 32.98L12.55 32.98L12.55 26.64Q12.55 24.71 12.06 24.04Q11.57 23.36 10.55 23.36Q9.35 23.36 8.94 24.23Q8.52 25.10 8.52 26.54L8.52 48.05Q8.52 49.83 9.05 50.56Q9.57 51.29 10.55 51.29Q11.65 51.29 12.10 50.39Q12.55 49.49 12.55 48.05L12.55 40.31L21.19 40.31L21.19 48.44Q21.19 54.10 18.33 56.65Q15.48 59.20 10.35 59.20Z"/></g></g></svg>