<svg xmlns="http://www.w3.org/2000/svg" id="canvas" viewBox="381.765 342.646 1651.812 302.562"><path d="M 506.29,438.84 C 504.77 437.68, 502.60 436.74, 497.95 436.37 C 493.30 436.00, 489.84 435.77, 483.05 437.00 C 476.26 438.22, 472.13 438.60, 464.00 442.52 C 455.87 446.44, 451.15 449.08, 442.40 456.59 C 433.64 464.11, 428.56 469.12, 420.21 480.09 C 411.86 491.05, 406.98 497.90, 400.67 511.43 C 394.36 524.95, 391.82 533.12, 388.67 547.70 C 385.51 562.28, 384.34 570.75, 384.90 584.33 C 385.46 597.92, 386.95 605.21, 391.48 615.63 C 396.01 626.06, 399.00 631.20, 407.54 636.46 C 416.08 641.72, 422.49 642.82, 434.19 641.93 C 445.88 641.03, 452.92 638.19, 466.02 632.00 C 479.12 625.81, 486.48 620.44, 499.68 610.97 C 512.88 601.50, 519.89 595.23, 532.02 584.64 C 544.14 574.05, 550.14 567.80, 560.29 558.04 C 570.45 548.27, 575.46 543.18, 582.81 535.82 C 590.15 528.47, 593.28 525.59, 597.02 521.26 C 600.76 516.92, 601.58 515.78, 601.50 514.15 C 601.42 512.53, 599.25 511.93, 596.62 513.13 C 593.99 514.33, 591.96 516.45, 588.35 520.16 C 584.75 523.87, 582.31 526.39, 578.60 531.66 C 574.90 536.93, 572.88 540.12, 569.82 546.52 C 566.77 552.93, 565.02 556.76, 563.32 563.69 C 561.62 570.61, 561.05 574.40, 561.31 581.16 C 561.58 587.93, 562.28 591.71, 564.65 597.52 C 567.02 603.33, 568.94 606.37, 573.18 610.21 C 577.43 614.04, 580.40 615.50, 585.89 616.69 C 591.39 617.87, 594.77 617.78, 600.66 616.12 C 606.54 614.47, 610.04 613.09, 615.31 608.40 C 620.59 603.72, 623.17 600.27, 627.03 592.72 C 630.89 585.17, 632.67 580.17, 634.61 570.66 C 636.55 561.14, 637.00 555.04, 636.72 545.15 C 636.44 535.26, 635.78 529.75, 633.22 521.21 C 630.66 512.67, 628.51 507.93, 623.93 502.44 C 619.35 496.96, 615.76 495.55, 610.31 493.77 C 604.86 492.00, 601.37 492.46, 596.67 493.56 C 591.97 494.65, 589.01 496.08, 586.80 499.23 C 584.59 502.38, 583.97 506.15, 585.64 509.30 C 587.31 512.46, 590.03 513.94, 595.14 515.01 C 600.25 516.08, 603.86 515.65, 611.20 514.65 C 618.55 513.65, 623.23 512.43, 631.87 510.01 C 640.50 507.60, 645.52 505.68, 654.37 502.58 C 663.23 499.49, 668.00 497.34, 676.15 494.53 C 684.29 491.72, 688.40 490.15, 695.11 488.52 C 701.81 486.88, 705.17 486.33, 709.66 486.35 C 714.15 486.37, 715.40 486.18, 717.56 488.60 C 719.73 491.02, 720.09 492.48, 720.47 498.45 C 720.86 504.43, 720.48 509.05, 719.49 518.46 C 718.49 527.88, 717.28 534.27, 715.51 545.53 C 713.73 556.80, 712.19 564.12, 710.61 574.78 C 709.04 585.44, 708.06 591.27, 707.64 598.83 C 707.21 606.39, 706.70 609.73, 708.47 612.58 C 710.25 615.44, 712.94 615.78, 716.52 613.11 C 720.11 610.44, 721.79 606.79, 726.41 599.22 C 731.02 591.65, 733.92 585.50, 739.61 575.27 C 745.30 565.04, 748.94 557.90, 754.86 548.07 C 760.77 538.25, 763.95 533.14, 769.18 526.14 C 774.40 519.15, 777.56 516.02, 780.98 513.11 C 784.40 510.19, 784.63 510.10, 786.27 511.55 C 787.90 513.01, 788.36 514.56, 789.15 520.38 C 789.93 526.21, 790.00 531.21, 790.20 540.69 C 790.40 550.16, 790.11 556.87, 790.14 567.75 C 790.18 578.62, 789.69 585.59, 790.37 595.06 C 791.05 604.53, 790.92 609.89, 793.53 615.08 C 796.14 620.27, 798.59 622.01, 803.42 620.99 C 808.24 619.97, 811.24 617.18, 817.67 609.98 C 824.09 602.78, 828.07 596.85, 835.55 584.99 C 843.03 573.13, 847.36 564.69, 855.06 550.67 C 862.75 536.66, 866.79 528.10, 874.02 514.92 C 881.24 501.75, 884.99 494.71, 891.19 484.79 C 897.38 474.87, 900.41 470.57, 905.00 465.31 C 909.59 460.05, 911.41 459.23, 914.14 458.48 C 916.88 457.74, 917.00 458.40, 918.65 461.60 C 920.31 464.80, 921.20 467.80, 922.43 474.49 C 923.67 481.18, 924.23 485.94, 924.84 495.06 C 925.44 504.17, 925.56 509.99, 925.45 520.07 C 925.33 530.16, 925.04 536.18, 924.26 545.50 C 923.47 554.81, 922.81 559.31, 921.51 566.64 C 920.21 573.96, 919.07 577.58, 917.76 582.12 C 916.46 586.66, 915.66 588.11, 914.98 589.34 C 914.30 590.57, 914.34 589.44, 914.36 588.28 C 914.38 587.11, 915.00 586.53, 915.09 583.51 C 915.18 580.49, 916.23 575.30, 914.83 573.18 C 913.42 571.06, 909.65 570.70, 908.06 572.90 C 906.48 575.10, 906.29 580.58, 906.90 584.16 C 907.52 587.73, 908.99 589.21, 911.13 590.78 C 913.27 592.35, 915.52 593.51, 917.61 591.99 C 919.70 590.48, 920.19 588.17, 921.58 583.20 C 922.97 578.22, 923.48 574.62, 924.56 567.13 C 925.64 559.63, 926.25 555.12, 926.99 545.72 C 927.73 536.32, 928.03 530.29, 928.24 520.12 C 928.45 509.95, 928.47 504.13, 928.04 494.88 C 927.62 485.62, 927.35 480.88, 926.12 473.83 C 924.89 466.78, 924.44 463.32, 921.90 459.62 C 919.35 455.93, 917.15 454.53, 913.39 455.34 C 909.63 456.15, 907.87 457.99, 903.09 463.68 C 898.31 469.36, 895.62 473.67, 889.50 483.75 C 883.37 493.83, 879.68 500.87, 872.47 514.07 C 865.26 527.28, 861.19 535.83, 853.44 549.78 C 845.69 563.73, 841.25 572.12, 833.71 583.82 C 826.17 595.51, 821.95 601.39, 815.75 608.26 C 809.56 615.14, 806.64 617.09, 802.73 618.21 C 798.83 619.32, 798.13 618.51, 796.23 613.84 C 794.33 609.17, 793.89 604.08, 793.24 594.86 C 792.59 585.64, 792.95 578.59, 792.99 567.75 C 793.03 556.91, 793.48 550.22, 793.42 540.64 C 793.36 531.07, 793.69 526.25, 792.69 519.87 C 791.68 513.49, 791.14 510.59, 788.40 508.74 C 785.66 506.88, 783.28 507.44, 779.00 510.60 C 774.72 513.76, 772.25 517.30, 766.99 524.53 C 761.73 531.77, 758.67 536.90, 752.71 546.78 C 746.74 556.65, 742.97 563.74, 737.16 573.89 C 731.36 584.04, 728.27 590.21, 723.68 597.54 C 719.09 604.86, 716.64 607.81, 714.21 610.52 C 711.77 613.24, 712.23 613.42, 711.52 611.12 C 710.81 608.81, 710.31 606.18, 710.64 598.99 C 710.98 591.80, 711.70 585.76, 713.20 575.16 C 714.70 564.55, 716.27 557.22, 718.13 545.96 C 719.99 534.69, 721.32 528.35, 722.50 518.81 C 723.68 509.26, 724.43 504.80, 724.03 498.23 C 723.62 491.66, 723.32 489.11, 720.45 485.98 C 717.59 482.85, 714.95 482.72, 709.71 482.59 C 704.48 482.47, 701.21 483.51, 694.30 485.35 C 687.39 487.19, 683.36 488.89, 675.18 491.78 C 667.01 494.68, 662.26 496.82, 653.43 499.84 C 644.59 502.86, 639.56 504.69, 631.02 506.87 C 622.49 509.05, 617.73 510.05, 610.74 510.73 C 603.76 511.41, 600.19 511.09, 596.11 510.28 C 592.02 509.47, 591.28 508.21, 590.31 506.67 C 589.34 505.14, 589.75 504.35, 591.26 502.62 C 592.76 500.89, 594.23 499.09, 597.83 498.02 C 601.43 496.96, 604.50 496.01, 609.25 497.29 C 614.00 498.57, 617.32 499.49, 621.58 504.44 C 625.84 509.38, 628.06 513.86, 630.55 522.01 C 633.04 530.17, 633.77 535.61, 634.03 545.22 C 634.29 554.83, 633.81 560.87, 631.86 570.09 C 629.91 579.30, 628.05 584.16, 624.28 591.29 C 620.50 598.42, 617.92 601.53, 612.99 605.74 C 608.06 609.95, 604.87 610.94, 599.62 612.33 C 594.37 613.72, 591.50 613.71, 586.75 612.69 C 582.00 611.66, 579.59 610.54, 575.87 607.22 C 572.15 603.89, 570.35 601.31, 568.17 596.07 C 565.98 590.83, 565.21 587.32, 564.95 581.02 C 564.68 574.71, 565.17 571.12, 566.84 564.57 C 568.51 558.01, 570.18 554.26, 573.30 548.25 C 576.42 542.24, 578.60 539.33, 582.42 534.51 C 586.24 529.68, 588.91 527.61, 592.38 524.12 C 595.85 520.63, 598.25 519.18, 599.77 517.06 C 601.29 514.93, 600.97 513.04, 599.98 513.49 C 598.99 513.94, 598.54 515.14, 594.80 519.31 C 591.06 523.48, 588.42 526.84, 581.28 534.33 C 574.14 541.83, 569.15 546.97, 559.08 556.79 C 549.01 566.60, 543.02 572.85, 530.95 583.42 C 518.87 593.98, 511.85 600.22, 498.71 609.61 C 485.57 619.00, 478.18 624.29, 465.25 630.37 C 452.32 636.45, 445.38 639.13, 434.04 640.02 C 422.70 640.90, 416.73 639.83, 408.56 634.80 C 400.40 629.77, 397.59 624.99, 393.21 614.88 C 388.84 604.77, 387.25 597.62, 386.68 584.26 C 386.10 570.89, 387.22 562.48, 390.34 548.06 C 393.46 533.65, 395.99 525.53, 402.28 512.18 C 408.56 498.82, 413.45 492.05, 421.78 481.29 C 430.10 470.53, 435.21 465.59, 443.91 458.38 C 452.60 451.17, 457.31 448.75, 465.26 445.25 C 473.21 441.75, 477.18 441.72, 483.65 440.90 C 490.13 440.07, 493.24 440.85, 497.62 441.11 C 502.00 441.37, 503.82 442.66, 505.56 442.20 C 507.29 441.75, 507.81 440.01, 506.29 438.84" style="stroke: black; fill: black;"/><path d="M 977.71,478.23 C 976.77 479.87, 976.70 481.79, 976.29 486.77 C 975.88 491.75, 976.12 495.19, 975.67 503.14 C 975.22 511.08, 974.35 516.80, 974.04 526.50 C 973.72 536.20, 973.38 542.47, 974.10 551.64 C 974.81 560.80, 975.30 566.01, 977.60 572.34 C 979.90 578.67, 981.37 581.73, 985.60 583.30 C 989.84 584.87, 993.00 584.01, 998.78 580.21 C 1004.56 576.41, 1007.94 572.54, 1014.51 564.30 C 1021.08 556.06, 1025.21 549.04, 1031.62 539.01 C 1038.04 528.99, 1041.65 521.93, 1046.60 514.17 C 1051.55 506.40, 1053.98 502.67, 1056.36 500.18 C 1058.75 497.68, 1057.97 497.82, 1058.54 501.70 C 1059.12 505.58, 1058.95 510.60, 1059.24 519.59 C 1059.53 528.58, 1059.19 535.93, 1060.00 546.66 C 1060.80 557.39, 1061.30 564.25, 1063.25 573.26 C 1065.20 582.26, 1066.16 586.88, 1069.75 591.67 C 1073.34 596.46, 1076.13 597.97, 1081.21 597.20 C 1086.28 596.42, 1089.19 594.26, 1095.14 587.81 C 1101.08 581.36, 1104.29 576.18, 1110.95 564.94 C 1117.60 553.71, 1121.59 546.37, 1128.42 531.64 C 1135.24 516.90, 1138.94 507.50, 1145.05 491.27 C 1151.17 475.03, 1154.19 465.54, 1159.00 450.46 C 1163.80 435.38, 1166.21 427.27, 1169.08 415.87 C 1171.95 404.47, 1172.95 399.59, 1173.35 393.47 C 1173.75 387.34, 1173.00 385.19, 1171.08 385.25 C 1169.16 385.30, 1166.93 387.53, 1163.73 393.73 C 1160.53 399.94, 1158.45 404.77, 1155.07 416.26 C 1151.69 427.75, 1149.61 435.69, 1146.83 451.18 C 1144.05 466.67, 1142.61 476.39, 1141.18 493.72 C 1139.76 511.05, 1138.96 521.53, 1139.69 537.83 C 1140.43 554.13, 1141.37 562.86, 1144.83 575.22 C 1148.30 587.58, 1150.86 593.34, 1157.00 599.61 C 1163.15 605.87, 1167.32 607.44, 1175.55 606.54 C 1183.78 605.65, 1188.73 603.00, 1198.14 595.12 C 1207.55 587.25, 1212.88 581.12, 1222.62 567.16 C 1232.36 553.20, 1237.78 543.50, 1246.84 525.31 C 1255.89 507.12, 1260.40 495.76, 1267.91 476.20 C 1275.42 456.64, 1278.82 445.53, 1284.37 427.51 C 1289.92 409.50, 1292.16 400.06, 1295.65 386.11 C 1299.15 372.16, 1300.49 365.79, 1301.84 357.76 C 1303.19 349.73, 1303.04 346.94, 1302.39 345.95 C 1301.73 344.96, 1299.98 346.17, 1298.56 352.83 C 1297.15 359.49, 1296.65 365.34, 1295.33 379.23 C 1294.01 393.12, 1293.23 403.14, 1291.96 422.28 C 1290.68 441.41, 1289.94 453.54, 1288.97 474.92 C 1287.99 496.30, 1287.56 509.03, 1287.09 529.18 C 1286.63 549.32, 1286.44 559.95, 1286.66 575.64 C 1286.88 591.32, 1287.20 599.02, 1288.19 607.60 C 1289.18 616.18, 1290.24 617.44, 1291.59 618.54 C 1292.94 619.65, 1294.09 616.53, 1294.94 613.11 C 1295.78 609.69, 1296.71 603.80, 1295.82 601.45 C 1294.93 599.10, 1291.46 599.07, 1290.49 601.35 C 1289.51 603.63, 1290.50 609.58, 1290.94 612.87 C 1291.38 616.16, 1292.85 618.89, 1292.70 617.79 C 1292.55 616.69, 1291.09 615.81, 1290.19 607.38 C 1289.29 598.94, 1288.54 591.24, 1288.18 575.61 C 1287.83 559.98, 1287.98 549.33, 1288.41 529.21 C 1288.83 509.08, 1289.27 496.34, 1290.31 474.98 C 1291.34 453.62, 1292.15 441.50, 1293.58 422.39 C 1295.01 403.29, 1295.94 393.28, 1297.44 379.45 C 1298.94 365.62, 1300.25 359.91, 1301.08 353.25 C 1301.90 346.59, 1301.82 345.30, 1301.56 346.13 C 1301.29 346.96, 1301.25 349.47, 1299.76 357.39 C 1298.27 365.31, 1297.44 371.79, 1294.11 385.74 C 1290.77 399.68, 1288.58 409.12, 1283.10 427.12 C 1277.62 445.12, 1274.21 456.22, 1266.71 475.74 C 1259.20 495.25, 1254.67 506.59, 1245.59 524.69 C 1236.50 542.78, 1231.01 552.42, 1221.27 566.21 C 1211.54 580.01, 1206.10 585.99, 1196.91 593.65 C 1187.71 601.30, 1183.01 603.57, 1175.32 604.49 C 1167.62 605.41, 1164.17 604.18, 1158.42 598.23 C 1152.66 592.28, 1149.95 586.84, 1146.53 574.74 C 1143.11 562.65, 1142.04 553.93, 1141.30 537.76 C 1140.55 521.58, 1141.32 511.10, 1142.80 493.86 C 1144.29 476.61, 1145.78 466.90, 1148.71 451.53 C 1151.64 436.15, 1153.91 428.28, 1157.45 416.98 C 1160.99 405.68, 1163.65 401.09, 1166.42 395.04 C 1169.19 389.00, 1170.42 387.11, 1171.30 386.75 C 1172.19 386.38, 1171.69 387.48, 1170.86 393.21 C 1170.03 398.94, 1169.86 404.06, 1167.17 415.41 C 1164.49 426.76, 1162.16 434.91, 1157.43 449.97 C 1152.71 465.03, 1149.69 474.52, 1143.56 490.70 C 1137.43 506.89, 1133.70 516.26, 1126.80 530.88 C 1119.90 545.50, 1115.78 552.79, 1109.06 563.81 C 1102.33 574.82, 1098.82 579.89, 1093.16 585.98 C 1087.49 592.06, 1084.90 593.45, 1080.71 594.24 C 1076.52 595.03, 1075.12 594.24, 1072.20 589.92 C 1069.28 585.60, 1067.94 581.34, 1066.12 572.64 C 1064.30 563.95, 1063.85 557.07, 1063.11 546.44 C 1062.37 535.80, 1062.73 528.59, 1062.41 519.48 C 1062.09 510.38, 1063.12 505.23, 1061.53 500.91 C 1059.94 496.59, 1057.94 495.53, 1054.46 497.87 C 1050.99 500.21, 1049.19 504.68, 1044.17 512.62 C 1039.15 520.56, 1035.72 527.58, 1029.35 537.56 C 1022.97 547.54, 1018.76 554.50, 1012.30 562.52 C 1005.84 570.54, 1002.16 574.11, 997.06 577.66 C 991.95 581.20, 990.04 581.52, 986.76 580.25 C 983.48 578.97, 982.56 577.05, 980.64 571.28 C 978.72 565.51, 977.84 560.33, 977.16 551.40 C 976.48 542.47, 976.79 536.22, 977.23 526.62 C 977.66 517.02, 978.67 511.30, 979.32 503.39 C 979.97 495.48, 980.16 492.04, 980.49 487.08 C 980.82 482.12, 981.53 480.37, 980.97 478.60 C 980.42 476.83, 978.65 476.60, 977.71 478.23" style="stroke: black; fill: black;"/><path d="M 1238.03,498.17 C 1239.59 498.83, 1241.01 498.82, 1245.65 498.37 C 1250.30 497.91, 1253.24 497.28, 1261.24 495.87 C 1269.23 494.47, 1274.82 493.63, 1285.63 491.33 C 1296.44 489.03, 1303.14 487.49, 1315.31 484.38 C 1327.48 481.27, 1334.62 479.20, 1346.49 475.77 C 1358.36 472.34, 1365.49 469.92, 1374.65 467.24 C 1383.82 464.56, 1388.91 463.79, 1392.32 462.38 C 1395.73 460.98, 1395.37 459.66, 1391.72 460.22 C 1388.06 460.77, 1383.21 462.48, 1374.05 465.16 C 1364.88 467.84, 1357.73 470.24, 1345.87 473.64 C 1334.02 477.05, 1326.91 479.18, 1314.76 482.19 C 1302.60 485.20, 1295.91 486.63, 1285.10 488.68 C 1274.29 490.72, 1268.68 491.35, 1260.70 492.42 C 1252.72 493.50, 1249.76 493.54, 1245.20 494.06 C 1240.63 494.59, 1239.30 494.22, 1237.87 495.04 C 1236.43 495.86, 1236.47 497.50, 1238.03 498.17" style="stroke: black; fill: black;"/><path d="M 1553.26,464.56 C 1552.80 466.14, 1553.54 467.21, 1553.99 471.96 C 1554.45 476.70, 1554.94 479.70, 1555.52 488.29 C 1556.10 496.87, 1556.43 503.22, 1556.88 514.89 C 1557.33 526.57, 1557.53 534.27, 1557.76 546.66 C 1558.00 559.05, 1557.53 566.48, 1558.05 576.85 C 1558.58 587.22, 1558.67 592.68, 1560.40 598.50 C 1562.14 604.31, 1563.89 606.61, 1566.74 605.92 C 1569.58 605.23, 1570.91 602.25, 1574.64 595.04 C 1578.37 587.83, 1580.41 581.57, 1585.37 569.88 C 1590.33 558.18, 1593.29 549.55, 1599.44 536.55 C 1605.60 523.56, 1609.40 515.64, 1616.15 504.90 C 1622.89 494.15, 1627.14 488.87, 1633.16 482.84 C 1639.18 476.81, 1642.06 475.17, 1646.25 474.75 C 1650.45 474.33, 1651.67 475.78, 1654.12 480.74 C 1656.57 485.71, 1657.39 490.42, 1658.51 499.58 C 1659.63 508.73, 1659.46 515.44, 1659.73 526.52 C 1659.99 537.59, 1659.67 544.78, 1659.85 554.93 C 1660.03 565.08, 1659.22 570.67, 1660.63 577.26 C 1662.04 583.85, 1663.09 586.86, 1666.91 587.88 C 1670.72 588.91, 1673.76 587.33, 1679.70 582.38 C 1685.64 577.43, 1689.07 572.56, 1696.60 563.14 C 1704.13 553.71, 1708.80 546.32, 1717.35 535.26 C 1725.91 524.19, 1731.05 517.14, 1739.38 507.81 C 1747.70 498.48, 1752.37 493.60, 1758.97 488.61 C 1765.57 483.61, 1768.46 482.65, 1772.37 482.85 C 1776.28 483.05, 1776.86 484.98, 1778.51 489.61 C 1780.16 494.24, 1780.53 498.35, 1780.61 505.99 C 1780.69 513.63, 1779.87 519.26, 1778.92 527.81 C 1777.97 536.35, 1776.87 541.63, 1775.86 548.72 C 1774.84 555.81, 1773.75 559.35, 1773.86 563.24 C 1773.96 567.14, 1775.24 568.63, 1776.40 568.21 C 1777.57 567.78, 1778.66 566.11, 1779.68 561.13 C 1780.70 556.14, 1780.70 551.87, 1781.51 543.28 C 1782.33 534.69, 1782.84 528.52, 1783.74 518.17 C 1784.65 507.82, 1785.54 501.36, 1786.04 491.51 C 1786.54 481.66, 1786.70 476.35, 1786.24 468.91 C 1785.79 461.48, 1785.94 457.78, 1783.77 454.35 C 1781.60 450.92, 1778.20 450.22, 1775.39 451.75 C 1772.59 453.29, 1771.09 456.45, 1769.75 462.03 C 1768.41 467.60, 1768.11 472.15, 1768.67 479.61 C 1769.23 487.07, 1769.64 492.19, 1772.57 499.32 C 1775.49 506.46, 1778.06 510.79, 1783.30 515.30 C 1788.53 519.81, 1791.76 521.66, 1798.75 521.88 C 1805.74 522.11, 1810.04 520.43, 1818.26 516.44 C 1826.47 512.45, 1831.41 508.79, 1839.83 501.91 C 1848.25 495.03, 1852.71 489.68, 1860.33 482.03 C 1867.95 474.39, 1872.18 469.19, 1877.93 463.70 C 1883.67 458.21, 1886.05 455.91, 1889.08 454.59 C 1892.11 453.26, 1892.00 453.55, 1893.08 457.08 C 1894.16 460.61, 1894.59 464.18, 1894.49 472.24 C 1894.38 480.31, 1893.53 486.74, 1892.57 497.40 C 1891.61 508.07, 1890.60 515.23, 1889.69 525.56 C 1888.77 535.89, 1888.16 541.45, 1887.99 549.06 C 1887.82 556.67, 1887.11 560.28, 1888.85 563.61 C 1890.59 566.94, 1892.89 567.70, 1896.70 565.71 C 1900.52 563.71, 1902.82 560.29, 1907.93 553.64 C 1913.04 547.00, 1916.43 541.47, 1922.27 532.48 C 1928.11 523.49, 1931.98 516.85, 1937.14 508.69 C 1942.30 500.53, 1945.16 495.78, 1948.06 491.67 C 1950.97 487.55, 1950.68 486.83, 1951.67 488.11 C 1952.67 489.38, 1952.58 491.87, 1953.05 498.03 C 1953.52 504.20, 1953.43 510.08, 1954.02 518.92 C 1954.60 527.76, 1954.53 533.58, 1955.97 542.23 C 1957.41 550.88, 1958.15 555.97, 1961.21 562.18 C 1964.26 568.40, 1966.42 571.31, 1971.22 573.29 C 1976.03 575.27, 1979.38 574.98, 1985.22 572.09 C 1991.07 569.21, 1994.56 565.89, 2000.44 558.85 C 2006.32 551.81, 2009.70 546.63, 2014.61 536.89 C 2019.53 527.15, 2021.94 520.46, 2025.02 510.14 C 2028.11 499.82, 2029.12 493.61, 2030.02 485.29 C 2030.93 476.97, 2030.69 472.88, 2029.55 468.56 C 2028.40 464.24, 2026.38 463.40, 2024.30 463.69 C 2022.21 463.99, 2019.32 466.86, 2019.13 470.03 C 2018.93 473.19, 2021.37 478.11, 2023.31 479.54 C 2025.25 480.97, 2028.37 479.24, 2028.81 477.19 C 2029.26 475.13, 2026.41 471.58, 2025.55 469.26 C 2024.70 466.93, 2024.47 465.56, 2024.55 465.56 C 2024.62 465.57, 2025.40 465.41, 2025.91 469.29 C 2026.41 473.18, 2027.75 476.98, 2027.07 485.00 C 2026.40 493.03, 2025.50 499.27, 2022.53 509.40 C 2019.56 519.54, 2017.09 526.17, 2012.22 535.68 C 2007.34 545.18, 2003.85 550.22, 1998.16 556.92 C 1992.46 563.63, 1988.88 566.53, 1983.75 569.19 C 1978.63 571.84, 1976.44 571.89, 1972.52 570.20 C 1968.61 568.52, 1966.83 566.46, 1964.18 560.76 C 1961.53 555.06, 1960.59 550.11, 1959.29 541.70 C 1957.98 533.28, 1958.18 527.50, 1957.66 518.69 C 1957.13 509.88, 1957.51 504.17, 1956.67 497.66 C 1955.82 491.15, 1955.67 487.74, 1953.44 486.13 C 1951.21 484.52, 1949.30 485.43, 1945.52 489.61 C 1941.73 493.80, 1939.69 498.81, 1934.51 507.04 C 1929.33 515.26, 1925.49 521.85, 1919.64 530.76 C 1913.78 539.67, 1910.23 545.18, 1905.26 551.57 C 1900.29 557.96, 1897.43 560.56, 1894.78 562.71 C 1892.14 564.85, 1892.77 565.02, 1892.04 562.30 C 1891.30 559.58, 1891.01 556.41, 1891.09 549.11 C 1891.18 541.82, 1891.59 536.09, 1892.48 525.81 C 1893.37 515.52, 1894.49 508.39, 1895.55 497.68 C 1896.61 486.98, 1897.62 480.66, 1897.76 472.29 C 1897.89 463.92, 1898.17 460.00, 1896.22 455.84 C 1894.27 451.69, 1892.08 450.36, 1888.01 451.51 C 1883.94 452.65, 1881.79 455.84, 1875.88 461.58 C 1869.97 467.31, 1866.01 472.52, 1858.47 480.19 C 1850.93 487.85, 1846.47 493.14, 1838.18 499.89 C 1829.90 506.64, 1824.91 510.15, 1817.05 513.94 C 1809.18 517.73, 1805.16 519.08, 1798.86 518.86 C 1792.55 518.63, 1790.07 516.99, 1785.50 512.82 C 1780.93 508.64, 1778.54 504.66, 1776.01 497.97 C 1773.49 491.27, 1773.25 486.33, 1772.87 479.34 C 1772.50 472.34, 1773.18 467.88, 1774.14 462.99 C 1775.09 458.10, 1776.38 456.25, 1777.63 454.87 C 1778.89 453.49, 1779.33 453.24, 1780.41 456.09 C 1781.50 458.94, 1782.51 462.08, 1783.07 469.14 C 1783.63 476.19, 1783.69 481.62, 1783.23 491.37 C 1782.76 501.12, 1781.82 507.58, 1780.75 517.88 C 1779.67 528.18, 1778.93 534.36, 1777.86 542.88 C 1776.80 551.40, 1775.88 555.52, 1775.42 560.49 C 1774.95 565.45, 1775.00 567.07, 1775.54 567.70 C 1776.08 568.33, 1777.33 567.33, 1778.14 563.64 C 1778.95 559.94, 1778.74 556.30, 1779.59 549.21 C 1780.45 542.12, 1781.50 536.84, 1782.40 528.18 C 1783.30 519.52, 1784.25 513.89, 1784.07 505.93 C 1783.89 497.98, 1783.80 493.58, 1781.49 488.40 C 1779.19 483.22, 1777.34 480.38, 1772.54 480.03 C 1767.75 479.69, 1764.47 481.41, 1757.51 486.68 C 1750.55 491.94, 1746.14 496.92, 1737.76 506.37 C 1729.38 515.81, 1724.24 522.87, 1715.61 533.90 C 1706.99 544.94, 1702.18 552.29, 1694.64 561.55 C 1687.09 570.82, 1683.26 575.54, 1677.87 580.22 C 1672.47 584.90, 1670.53 585.66, 1667.66 584.96 C 1664.80 584.25, 1664.55 582.71, 1663.54 576.70 C 1662.53 570.68, 1662.83 564.93, 1662.61 554.88 C 1662.40 544.83, 1662.72 537.58, 1662.48 526.45 C 1662.23 515.32, 1662.55 508.64, 1661.40 499.22 C 1660.24 489.81, 1659.77 484.80, 1656.69 479.38 C 1653.62 473.95, 1651.07 471.72, 1646.03 472.08 C 1640.99 472.44, 1637.83 474.84, 1631.50 481.18 C 1625.17 487.53, 1621.18 492.90, 1614.38 503.79 C 1607.58 514.68, 1603.77 522.61, 1597.51 535.63 C 1591.25 548.65, 1588.16 557.26, 1583.08 568.89 C 1577.99 580.51, 1575.53 586.85, 1572.10 593.76 C 1568.67 600.66, 1567.71 602.62, 1565.93 603.43 C 1564.15 604.23, 1564.27 603.14, 1563.20 597.79 C 1562.13 592.45, 1561.20 586.94, 1560.59 576.71 C 1559.97 566.47, 1560.34 559.00, 1560.13 546.62 C 1559.92 534.24, 1559.80 526.51, 1559.54 514.81 C 1559.28 503.11, 1559.13 496.77, 1558.84 488.12 C 1558.55 479.47, 1558.60 476.36, 1558.09 471.55 C 1557.57 466.73, 1557.25 465.44, 1556.29 464.04 C 1555.32 462.64, 1553.72 462.97, 1553.26 464.56" style="stroke: black; fill: black;"/></svg>