<svg xmlns="http://www.w3.org/2000/svg" id="canvas" viewBox="390.783 436.455 1730.696 198.794"><path d="M 408.70,468.78 C 408.31 469.65, 408.09 470.65, 407.97 473.13 C 407.85 475.62, 408.06 477.29, 408.12 481.20 C 408.17 485.10, 408.24 487.56, 408.24 492.66 C 408.24 497.77, 408.26 500.80, 408.11 506.73 C 407.97 512.67, 407.81 515.96, 407.51 522.34 C 407.21 528.72, 406.97 532.17, 406.61 538.64 C 406.26 545.11, 406.04 548.55, 405.74 554.68 C 405.44 560.82, 405.32 563.90, 405.10 569.32 C 404.89 574.75, 404.81 577.47, 404.67 581.80 C 404.52 586.14, 404.30 588.11, 404.39 590.99 C 404.47 593.86, 404.86 594.92, 405.09 596.16 C 405.32 597.40, 405.38 596.96, 405.52 597.17 C 405.67 597.38, 405.65 597.41, 405.84 597.20 C 406.04 597.00, 406.27 597.41, 406.50 596.16 C 406.73 594.91, 406.97 593.82, 406.98 590.95 C 407.00 588.09, 406.64 586.14, 406.59 581.82 C 406.53 577.51, 406.59 574.79, 406.71 569.37 C 406.83 563.96, 406.94 560.88, 407.21 554.75 C 407.47 548.62, 407.69 545.18, 408.05 538.72 C 408.41 532.25, 408.66 528.80, 409.01 522.41 C 409.36 516.03, 409.54 512.73, 409.80 506.79 C 410.05 500.85, 410.11 497.82, 410.30 492.70 C 410.48 487.58, 410.63 485.13, 410.72 481.21 C 410.81 477.29, 410.90 475.60, 410.74 473.11 C 410.59 470.62, 410.34 469.63, 409.93 468.76 C 409.52 467.90, 409.09 467.90, 408.70 468.78" style="stroke: black; fill: black;"/><path d="M 395.22,469.12 C 395.76 468.68, 395.91 467.90, 396.67 466.61 C 397.43 465.32, 397.77 464.50, 399.00 462.68 C 400.22 460.86, 400.84 459.62, 402.80 457.52 C 404.76 455.42, 406.03 454.16, 408.81 452.19 C 411.59 450.23, 413.34 449.12, 416.72 447.70 C 420.10 446.28, 422.07 445.63, 425.71 445.10 C 429.35 444.58, 431.42 444.55, 434.92 445.06 C 438.41 445.57, 440.19 446.14, 443.17 447.67 C 446.15 449.20, 447.60 450.24, 449.84 452.72 C 452.08 455.20, 453.07 456.74, 454.38 460.07 C 455.68 463.40, 456.11 465.36, 456.35 469.38 C 456.58 473.39, 456.41 475.72, 455.54 480.15 C 454.67 484.57, 453.93 487.01, 452.00 491.50 C 450.07 496.00, 448.70 498.39, 445.89 502.60 C 443.07 506.81, 441.28 508.90, 437.94 512.56 C 434.59 516.22, 432.59 518.02, 429.16 520.90 C 425.74 523.78, 423.85 524.98, 420.83 526.95 C 417.80 528.92, 416.25 529.56, 414.03 530.74 C 411.82 531.92, 411.02 532.26, 409.74 532.84 C 408.45 533.43, 408.01 533.35, 407.60 533.66 C 407.20 533.97, 407.17 534.20, 407.70 534.38 C 408.23 534.56, 408.74 534.81, 410.25 534.56 C 411.76 534.30, 412.87 534.27, 415.24 533.12 C 417.61 531.98, 419.07 530.98, 422.11 528.84 C 425.15 526.69, 427.01 525.40, 430.44 522.39 C 433.88 519.38, 435.90 517.54, 439.29 513.79 C 442.68 510.03, 444.50 507.91, 447.39 503.61 C 450.27 499.30, 451.70 496.87, 453.72 492.25 C 455.75 487.64, 456.55 485.14, 457.51 480.54 C 458.47 475.95, 458.71 473.52, 458.51 469.26 C 458.32 465.00, 457.91 462.87, 456.53 459.24 C 455.15 455.61, 454.06 453.86, 451.61 451.12 C 449.16 448.38, 447.53 447.22, 444.26 445.54 C 440.99 443.86, 439.04 443.27, 435.26 442.71 C 431.49 442.14, 429.27 442.20, 425.37 442.73 C 421.48 443.26, 419.40 443.93, 415.78 445.36 C 412.15 446.78, 410.32 447.88, 407.24 449.84 C 404.16 451.79, 402.60 452.94, 400.36 455.13 C 398.12 457.32, 397.28 458.71, 396.03 460.79 C 394.77 462.88, 394.49 463.96, 394.08 465.56 C 393.67 467.15, 393.74 468.06, 393.96 468.77 C 394.19 469.48, 394.68 469.55, 395.22 469.12" style="stroke: black; fill: black;"/><path d="M 489.50,514.60 C 489.31 514.09, 488.96 513.77, 488.12 513.31 C 487.28 512.85, 486.72 512.48, 485.32 512.31 C 483.91 512.14, 482.95 512.01, 481.09 512.45 C 479.24 512.89, 478.20 513.14, 476.04 514.53 C 473.89 515.93, 472.70 516.76, 470.33 519.43 C 467.96 522.10, 466.60 523.84, 464.20 527.88 C 461.80 531.92, 460.46 534.54, 458.32 539.63 C 456.19 544.72, 455.10 547.93, 453.51 553.33 C 451.93 558.73, 451.21 561.81, 450.41 566.63 C 449.61 571.44, 449.40 573.79, 449.51 577.39 C 449.62 580.98, 449.98 582.44, 450.94 584.59 C 451.91 586.74, 452.74 587.42, 454.32 588.13 C 455.90 588.85, 456.93 588.91, 458.83 588.16 C 460.73 587.41, 461.89 586.71, 463.82 584.39 C 465.75 582.07, 466.54 580.37, 468.49 576.54 C 470.44 572.71, 471.49 570.25, 473.57 565.22 C 475.65 560.20, 476.84 556.94, 478.90 551.42 C 480.95 545.91, 482.04 542.62, 483.84 537.64 C 485.64 532.66, 486.62 530.12, 487.90 526.53 C 489.19 522.93, 489.78 521.32, 490.25 519.65 C 490.72 517.99, 490.45 517.55, 490.25 518.20 C 490.05 518.86, 489.53 519.91, 489.24 522.94 C 488.95 525.96, 489.01 528.43, 488.80 533.34 C 488.58 538.26, 488.41 541.66, 488.17 547.52 C 487.92 553.38, 487.71 557.01, 487.55 562.66 C 487.40 568.30, 487.31 571.23, 487.39 575.75 C 487.48 580.27, 487.49 582.19, 488.00 585.24 C 488.50 588.29, 488.92 589.44, 489.92 591.00 C 490.93 592.57, 491.80 592.80, 493.03 593.08 C 494.26 593.35, 495.16 592.92, 496.07 592.38 C 496.99 591.84, 497.50 590.97, 497.61 590.37 C 497.72 589.77, 497.17 589.35, 496.64 589.38 C 496.11 589.41, 495.61 590.12, 494.95 590.53 C 494.30 590.94, 494.02 591.53, 493.35 591.43 C 492.68 591.34, 492.22 591.37, 491.62 590.06 C 491.02 588.75, 490.81 587.73, 490.35 584.86 C 489.89 581.99, 489.52 580.12, 489.32 575.69 C 489.11 571.26, 489.18 568.32, 489.33 562.71 C 489.48 557.09, 489.71 553.46, 490.08 547.62 C 490.44 541.78, 490.77 538.41, 491.17 533.49 C 491.58 528.58, 492.12 526.17, 492.10 523.06 C 492.07 519.95, 491.74 518.77, 491.06 517.94 C 490.38 517.11, 489.72 517.35, 488.68 518.91 C 487.63 520.48, 487.15 522.16, 485.84 525.78 C 484.53 529.41, 483.85 532.04, 482.13 537.04 C 480.41 542.04, 479.31 545.32, 477.24 550.80 C 475.17 556.28, 473.94 559.53, 471.76 564.45 C 469.59 569.36, 468.43 571.79, 466.35 575.38 C 464.26 578.96, 463.07 580.24, 461.36 582.37 C 459.64 584.50, 459.03 585.20, 457.77 586.03 C 456.51 586.86, 456.03 586.97, 455.06 586.52 C 454.10 586.07, 453.63 585.60, 452.97 583.76 C 452.30 581.92, 451.87 580.68, 451.73 577.31 C 451.59 573.94, 451.57 571.62, 452.27 566.92 C 452.97 562.22, 453.67 559.14, 455.23 553.83 C 456.79 548.52, 457.89 545.34, 460.07 540.38 C 462.24 535.42, 463.62 532.85, 466.09 529.05 C 468.55 525.25, 470.05 523.72, 472.39 521.37 C 474.73 519.02, 475.90 518.46, 477.79 517.32 C 479.68 516.19, 480.41 516.02, 481.85 515.69 C 483.29 515.37, 483.91 515.63, 485.00 515.69 C 486.10 515.75, 486.51 515.97, 487.32 516.00 C 488.13 516.03, 488.62 516.12, 489.06 515.83 C 489.49 515.55, 489.69 515.10, 489.50 514.60" style="stroke: black; fill: black;"/><path d="M 524.84,470.40 C 524.46 470.87, 524.18 471.03, 523.92 472.86 C 523.66 474.69, 523.60 475.86, 523.54 479.55 C 523.48 483.23, 523.67 485.74, 523.63 491.28 C 523.60 496.82, 523.55 500.43, 523.36 507.26 C 523.16 514.10, 522.98 518.20, 522.66 525.43 C 522.33 532.66, 522.05 536.60, 521.74 543.41 C 521.43 550.22, 521.27 553.72, 521.08 559.49 C 520.89 565.25, 520.83 567.93, 520.79 572.24 C 520.76 576.54, 520.64 578.33, 520.92 581.02 C 521.20 583.71, 521.74 584.45, 522.20 585.69 C 522.67 586.94, 522.94 586.98, 523.25 587.26 C 523.56 587.53, 523.68 587.45, 523.76 587.07 C 523.83 586.70, 523.71 586.63, 523.62 585.38 C 523.53 584.12, 523.51 583.44, 523.31 580.81 C 523.11 578.18, 522.77 576.47, 522.63 572.21 C 522.48 567.96, 522.49 565.27, 522.58 559.53 C 522.68 553.78, 522.81 550.27, 523.10 543.47 C 523.39 536.66, 523.67 532.73, 524.04 525.50 C 524.40 518.27, 524.60 514.16, 524.92 507.32 C 525.24 500.49, 525.35 496.88, 525.64 491.34 C 525.92 485.80, 526.19 483.30, 526.34 479.63 C 526.50 475.95, 526.49 474.80, 526.39 472.97 C 526.29 471.14, 526.16 470.99, 525.85 470.47 C 525.54 469.96, 525.23 469.92, 524.84 470.40" style="stroke: black; fill: black;"/><path d="M 510.88,533.99 C 511.31 534.27, 511.61 534.39, 512.82 534.34 C 514.03 534.28, 514.87 534.25, 516.93 533.72 C 518.99 533.20, 520.36 532.81, 523.11 531.70 C 525.85 530.59, 527.54 529.72, 530.67 528.18 C 533.80 526.63, 535.57 525.64, 538.75 523.98 C 541.93 522.31, 543.65 521.36, 546.57 519.84 C 549.50 518.33, 551.00 517.59, 553.38 516.41 C 555.76 515.24, 556.85 514.65, 558.48 513.98 C 560.11 513.31, 560.70 512.93, 561.52 513.06 C 562.35 513.19, 562.39 513.27, 562.60 514.61 C 562.80 515.95, 562.60 516.90, 562.55 519.75 C 562.50 522.61, 562.55 524.60, 562.34 528.88 C 562.13 533.17, 561.90 536.02, 561.50 541.19 C 561.10 546.36, 560.77 549.53, 560.33 554.72 C 559.89 559.92, 559.64 562.68, 559.29 567.15 C 558.94 571.63, 558.61 573.81, 558.60 577.11 C 558.58 580.41, 558.82 582.00, 559.22 583.64 C 559.62 585.27, 560.23 584.99, 560.59 585.28 C 560.95 585.57, 560.96 585.45, 561.02 585.08 C 561.08 584.71, 560.86 585.03, 560.88 583.44 C 560.89 581.85, 561.01 580.38, 561.09 577.15 C 561.18 573.92, 561.07 571.73, 561.30 567.28 C 561.53 562.83, 561.79 560.07, 562.24 554.89 C 562.70 549.71, 563.04 546.54, 563.57 541.37 C 564.09 536.21, 564.42 533.40, 564.87 529.08 C 565.32 524.76, 565.85 522.81, 565.83 519.77 C 565.82 516.74, 565.56 515.59, 564.80 513.90 C 564.03 512.21, 563.41 511.81, 561.99 511.33 C 560.57 510.85, 559.69 511.05, 557.70 511.52 C 555.71 511.99, 554.55 512.51, 552.06 513.68 C 549.57 514.85, 548.18 515.81, 545.27 517.38 C 542.36 518.95, 540.66 519.92, 537.49 521.53 C 534.32 523.14, 532.55 524.10, 529.41 525.43 C 526.27 526.76, 524.50 527.25, 521.79 528.20 C 519.07 529.15, 517.75 529.46, 515.82 530.19 C 513.89 530.91, 513.18 531.26, 512.15 531.80 C 511.11 532.35, 510.89 532.48, 510.64 532.91 C 510.38 533.35, 510.44 533.71, 510.88 533.99" style="stroke: black; fill: black;"/><path d="M 566.26,480.64 C 566.17 480.10, 565.98 479.64, 565.72 479.61 C 565.46 479.58, 565.24 480.00, 564.98 480.48 C 564.71 480.96, 564.56 481.44, 564.40 482.00 C 564.24 482.57, 564.02 483.09, 564.17 483.31 C 564.33 483.54, 564.65 483.53, 565.16 483.14 C 565.66 482.76, 566.36 481.91, 566.70 481.38 C 567.04 480.86, 566.99 480.53, 566.87 480.50 C 566.75 480.47, 566.34 480.84, 566.10 481.23 C 565.86 481.62, 565.74 482.05, 565.67 482.46 C 565.60 482.87, 565.66 483.32, 565.76 483.28 C 565.87 483.25, 566.10 482.82, 566.20 482.29 C 566.30 481.76, 566.36 481.17, 566.26 480.64" style="stroke: black; fill: black;"/><path d="M 586.73,539.87 C 587.25 540.23, 587.90 540.54, 589.25 540.41 C 590.61 540.29, 591.57 540.15, 593.51 539.24 C 595.44 538.34, 596.77 537.69, 598.94 535.88 C 601.12 534.08, 602.21 532.72, 604.37 530.23 C 606.53 527.74, 607.77 526.26, 609.75 523.42 C 611.73 520.58, 612.75 518.96, 614.28 516.03 C 615.81 513.10, 616.54 511.51, 617.39 508.79 C 618.24 506.07, 618.51 504.67, 618.53 502.42 C 618.55 500.18, 618.38 499.02, 617.47 497.56 C 616.57 496.11, 615.74 495.44, 614.00 495.16 C 612.26 494.88, 611.02 494.86, 608.76 496.16 C 606.51 497.45, 605.23 498.60, 602.74 501.64 C 600.25 504.68, 598.82 506.77, 596.32 511.35 C 593.82 515.94, 592.42 518.89, 590.23 524.56 C 588.04 530.23, 586.86 533.73, 585.38 539.69 C 583.90 545.65, 583.30 548.96, 582.84 554.34 C 582.38 559.72, 582.47 562.35, 583.08 566.59 C 583.69 570.83, 584.24 572.74, 585.87 575.55 C 587.51 578.36, 588.79 579.35, 591.25 580.63 C 593.71 581.92, 595.25 582.20, 598.15 581.96 C 601.06 581.72, 602.71 581.14, 605.78 579.42 C 608.86 577.71, 610.50 576.38, 613.53 573.39 C 616.56 570.39, 618.08 568.49, 620.93 564.44 C 623.79 560.38, 625.25 557.88, 627.80 553.11 C 630.36 548.35, 631.56 545.55, 633.73 540.61 C 635.90 535.68, 636.91 532.89, 638.65 528.43 C 640.39 523.96, 641.27 521.71, 642.43 518.29 C 643.60 514.86, 644.13 513.12, 644.47 511.29 C 644.82 509.46, 644.54 508.78, 644.17 509.14 C 643.80 509.49, 643.14 510.35, 642.64 513.05 C 642.14 515.75, 642.16 518.03, 641.68 522.64 C 641.21 527.24, 640.86 530.53, 640.25 536.07 C 639.64 541.62, 639.27 545.06, 638.63 550.35 C 638.00 555.64, 637.59 558.45, 637.08 562.53 C 636.56 566.61, 636.13 568.31, 636.07 570.76 C 636.00 573.21, 636.26 574.01, 636.75 574.77 C 637.24 575.53, 637.75 575.55, 638.53 574.56 C 639.31 573.57, 639.84 572.70, 640.65 569.83 C 641.46 566.96, 641.49 564.79, 642.59 560.20 C 643.70 555.62, 644.41 552.44, 646.17 546.90 C 647.93 541.35, 649.05 537.86, 651.39 532.48 C 653.73 527.11, 655.23 524.20, 657.86 520.04 C 660.48 515.89, 662.05 514.14, 664.50 511.71 C 666.96 509.28, 668.20 508.68, 670.13 507.89 C 672.05 507.11, 672.83 507.09, 674.13 507.79 C 675.43 508.49, 675.77 509.18, 676.65 511.38 C 677.52 513.57, 677.98 515.07, 678.52 518.79 C 679.05 522.50, 679.19 525.10, 679.32 529.97 C 679.44 534.84, 679.29 537.92, 679.15 543.14 C 679.01 548.35, 678.76 551.27, 678.60 556.05 C 678.44 560.83, 678.27 563.22, 678.36 567.03 C 678.45 570.84, 678.45 572.53, 679.03 575.08 C 679.61 577.62, 680.31 578.47, 681.26 579.77 C 682.21 581.07, 682.93 581.24, 683.80 581.58 C 684.66 581.92, 685.22 581.64, 685.59 581.46 C 685.97 581.28, 685.89 580.91, 685.67 580.67 C 685.45 580.43, 685.03 580.66, 684.49 580.26 C 683.96 579.86, 683.60 579.81, 683.00 578.66 C 682.40 577.52, 681.98 576.88, 681.50 574.54 C 681.01 572.20, 680.77 570.64, 680.58 566.95 C 680.39 563.26, 680.46 560.85, 680.56 556.10 C 680.67 551.35, 680.92 548.43, 681.11 543.20 C 681.29 537.97, 681.50 534.89, 681.49 529.94 C 681.49 524.99, 681.55 522.39, 681.09 518.45 C 680.62 514.51, 680.39 512.73, 679.17 510.25 C 677.95 507.76, 676.95 506.88, 674.99 506.01 C 673.03 505.14, 671.76 505.04, 669.37 505.88 C 666.97 506.72, 665.62 507.58, 663.02 510.22 C 660.41 512.87, 658.97 514.78, 656.33 519.09 C 653.69 523.41, 652.20 526.35, 649.81 531.79 C 647.42 537.24, 646.29 540.75, 644.37 546.30 C 642.45 551.85, 641.61 555.01, 640.22 559.56 C 638.83 564.10, 638.07 566.12, 637.43 569.02 C 636.79 571.92, 636.99 572.91, 637.03 574.03 C 637.07 575.16, 637.36 575.26, 637.65 574.64 C 637.94 574.02, 638.17 573.32, 638.48 570.95 C 638.78 568.57, 638.77 566.84, 639.18 562.77 C 639.59 558.69, 639.90 555.86, 640.52 550.57 C 641.14 545.28, 641.55 541.85, 642.28 536.32 C 643.02 530.80, 643.53 527.54, 644.19 522.95 C 644.85 518.36, 645.49 516.16, 645.59 513.37 C 645.69 510.58, 645.29 509.55, 644.69 509.00 C 644.09 508.46, 643.51 508.93, 642.61 510.64 C 641.72 512.34, 641.36 514.11, 640.21 517.54 C 639.06 520.96, 638.49 523.28, 636.87 527.76 C 635.25 532.23, 634.24 535.00, 632.11 539.90 C 629.97 544.80, 628.77 547.58, 626.21 552.25 C 623.65 556.92, 622.17 559.38, 619.31 563.27 C 616.46 567.17, 614.89 568.96, 611.93 571.72 C 608.97 574.49, 607.31 575.58, 604.50 577.09 C 601.69 578.60, 600.32 578.98, 597.89 579.26 C 595.45 579.55, 594.33 579.49, 592.32 578.52 C 590.31 577.54, 589.29 576.84, 587.82 574.40 C 586.34 571.95, 585.61 570.29, 584.95 566.30 C 584.29 562.32, 584.11 559.72, 584.51 554.48 C 584.91 549.23, 585.48 545.94, 586.95 540.08 C 588.41 534.22, 589.60 530.74, 591.83 525.19 C 594.06 519.65, 595.52 516.73, 598.11 512.37 C 600.69 508.00, 602.32 506.10, 604.77 503.38 C 607.22 500.65, 608.54 499.94, 610.35 498.73 C 612.16 497.51, 612.76 497.32, 613.81 497.28 C 614.86 497.25, 615.20 497.57, 615.60 498.56 C 616.00 499.56, 616.04 500.40, 615.81 502.26 C 615.58 504.11, 615.27 505.36, 614.45 507.85 C 613.64 510.34, 613.13 511.93, 611.72 514.71 C 610.30 517.49, 609.33 519.07, 607.39 521.75 C 605.45 524.42, 604.18 525.84, 602.02 528.08 C 599.85 530.32, 598.61 531.36, 596.58 532.96 C 594.54 534.56, 593.43 535.11, 591.83 536.08 C 590.23 537.05, 589.60 537.31, 588.56 537.82 C 587.53 538.33, 587.02 538.22, 586.66 538.63 C 586.29 539.04, 586.21 539.51, 586.73 539.87" style="stroke: black; fill: black;"/><path d="M 733.94,507.47 C 733.84 506.87, 733.52 506.18, 732.62 505.55 C 731.72 504.93, 730.96 504.46, 729.45 504.35 C 727.93 504.25, 726.92 504.18, 725.04 505.05 C 723.16 505.91, 722.07 506.53, 720.04 508.68 C 718.02 510.84, 717.04 512.36, 714.91 515.83 C 712.78 519.30, 711.56 521.48, 709.41 526.03 C 707.26 530.59, 705.95 533.45, 704.17 538.61 C 702.40 543.77, 701.55 546.82, 700.54 551.84 C 699.53 556.87, 699.15 559.46, 699.13 563.74 C 699.10 568.02, 699.32 570.06, 700.40 573.24 C 701.49 576.42, 702.44 577.74, 704.55 579.64 C 706.65 581.54, 708.05 582.15, 710.93 582.72 C 713.80 583.29, 715.52 583.24, 718.93 582.49 C 722.33 581.73, 724.25 580.95, 727.95 578.94 C 731.65 576.94, 733.61 575.63, 737.42 572.45 C 741.23 569.27, 743.26 567.30, 747.01 563.03 C 750.75 558.75, 752.73 556.11, 756.15 551.06 C 759.57 546.02, 761.27 543.03, 764.10 537.80 C 766.93 532.57, 768.28 529.66, 770.30 524.92 C 772.33 520.18, 773.21 517.82, 774.23 514.11 C 775.24 510.40, 775.55 508.79, 775.38 506.37 C 775.21 503.96, 774.65 503.03, 773.39 502.04 C 772.12 501.04, 771.04 500.80, 769.04 501.40 C 767.04 501.99, 765.66 502.68, 763.39 505.02 C 761.11 507.36, 759.93 509.14, 757.68 513.10 C 755.42 517.06, 754.11 519.66, 752.10 524.82 C 750.09 529.98, 748.99 533.21, 747.63 538.89 C 746.27 544.58, 745.69 547.84, 745.30 553.24 C 744.91 558.64, 744.90 561.42, 745.69 565.91 C 746.49 570.39, 747.24 572.47, 749.28 575.67 C 751.31 578.86, 752.80 580.09, 755.88 581.88 C 758.97 583.68, 760.94 584.12, 764.70 584.64 C 768.46 585.16, 770.94 584.90, 774.68 584.49 C 778.42 584.07, 780.55 583.49, 783.39 582.55 C 786.24 581.62, 787.88 580.57, 788.90 579.81 C 789.92 579.04, 789.75 578.67, 788.51 578.71 C 787.27 578.74, 785.52 579.36, 782.69 579.99 C 779.86 580.62, 777.90 581.41, 774.37 581.86 C 770.83 582.31, 768.48 582.63, 765.00 582.25 C 761.52 581.86, 759.78 581.48, 756.98 579.94 C 754.18 578.41, 752.88 577.43, 750.98 574.56 C 749.09 571.69, 748.29 569.82, 747.50 565.58 C 746.71 561.34, 746.65 558.61, 747.01 553.36 C 747.37 548.10, 747.94 544.86, 749.31 539.30 C 750.69 533.74, 751.80 530.53, 753.88 525.54 C 755.96 520.54, 757.36 518.00, 759.70 514.33 C 762.05 510.65, 763.55 509.30, 765.60 507.15 C 767.64 504.99, 768.56 504.34, 769.93 503.56 C 771.30 502.77, 771.78 502.63, 772.43 503.20 C 773.09 503.78, 773.25 504.36, 773.20 506.43 C 773.15 508.50, 773.10 510.01, 772.20 513.57 C 771.30 517.14, 770.60 519.56, 768.70 524.25 C 766.80 528.95, 765.47 531.86, 762.70 537.04 C 759.92 542.23, 758.23 545.19, 754.83 550.16 C 751.44 555.13, 749.45 557.73, 745.72 561.89 C 741.99 566.04, 739.95 567.93, 736.18 570.93 C 732.42 573.93, 730.44 575.11, 726.88 576.90 C 723.32 578.69, 721.46 579.25, 718.37 579.89 C 715.28 580.52, 713.86 580.48, 711.42 580.07 C 708.97 579.65, 707.92 579.34, 706.15 577.82 C 704.38 576.30, 703.58 575.30, 702.57 572.48 C 701.57 569.66, 701.17 567.79, 701.13 563.73 C 701.08 559.68, 701.39 557.11, 702.36 552.20 C 703.32 547.30, 704.16 544.28, 705.95 539.23 C 707.73 534.18, 709.07 531.35, 711.30 526.95 C 713.52 522.56, 714.82 520.42, 717.07 517.25 C 719.31 514.07, 720.65 512.95, 722.52 511.08 C 724.40 509.21, 725.09 508.60, 726.44 507.88 C 727.79 507.15, 728.29 507.39, 729.27 507.43 C 730.25 507.48, 730.56 507.86, 731.33 508.09 C 732.09 508.31, 732.57 508.69, 733.09 508.56 C 733.61 508.44, 734.03 508.07, 733.94 507.47" style="stroke: black; fill: black;"/><path d="M 898.66,501.88 C 898.50 501.34, 898.17 500.83, 897.26 500.30 C 896.35 499.76, 895.67 499.38, 894.10 499.21 C 892.54 499.03, 891.50 498.91, 889.45 499.43 C 887.39 499.95, 886.23 500.23, 883.84 501.83 C 881.45 503.42, 880.13 504.51, 877.49 507.41 C 874.85 510.31, 873.34 512.08, 870.65 516.33 C 867.95 520.57, 866.40 523.28, 864.01 528.62 C 861.62 533.97, 860.39 537.28, 858.69 543.04 C 856.99 548.80, 856.25 552.04, 855.50 557.43 C 854.74 562.81, 854.62 565.56, 854.93 569.96 C 855.23 574.37, 855.64 576.36, 857.02 579.46 C 858.39 582.56, 859.46 583.80, 861.80 585.47 C 864.14 587.13, 865.73 587.66, 868.70 587.80 C 871.68 587.94, 873.39 587.55, 876.67 586.16 C 879.94 584.76, 881.73 583.61, 885.08 580.83 C 888.43 578.05, 890.16 576.25, 893.40 572.26 C 896.65 568.27, 898.30 565.80, 901.31 560.90 C 904.32 556.00, 905.84 553.03, 908.45 547.77 C 911.06 542.51, 912.28 539.53, 914.36 534.62 C 916.44 529.71, 917.33 527.14, 918.84 523.23 C 920.35 519.32, 921.14 517.58, 921.91 515.09 C 922.68 512.61, 922.70 511.68, 922.68 510.83 C 922.65 509.97, 922.25 509.87, 921.79 510.83 C 921.34 511.79, 920.74 512.81, 920.40 515.63 C 920.06 518.46, 920.28 520.65, 920.09 524.95 C 919.90 529.25, 919.76 532.10, 919.47 537.13 C 919.17 542.17, 918.96 545.17, 918.62 550.11 C 918.28 555.06, 918.11 557.69, 917.76 561.85 C 917.42 566.00, 917.02 567.95, 916.89 570.87 C 916.77 573.79, 916.88 574.99, 917.14 576.46 C 917.39 577.92, 917.76 578.32, 918.18 578.19 C 918.59 578.07, 918.96 577.55, 919.21 575.82 C 919.47 574.09, 919.46 572.71, 919.45 569.53 C 919.43 566.34, 919.09 564.15, 919.14 559.88 C 919.19 555.62, 919.26 552.88, 919.69 548.19 C 920.12 543.50, 920.48 540.81, 921.30 536.42 C 922.11 532.03, 922.68 529.84, 923.77 526.25 C 924.87 522.67, 925.54 521.12, 926.77 518.49 C 927.99 515.86, 928.55 514.88, 929.89 513.10 C 931.23 511.33, 931.94 510.73, 933.47 509.63 C 935.00 508.53, 935.75 508.17, 937.56 507.60 C 939.37 507.03, 940.39 506.97, 942.54 506.80 C 944.68 506.62, 945.86 506.74, 948.28 506.73 C 950.70 506.73, 952.05 506.84, 954.64 506.78 C 957.23 506.73, 958.61 506.70, 961.24 506.47 C 963.87 506.24, 965.25 506.13, 967.81 505.63 C 970.38 505.14, 971.69 504.83, 974.05 503.99 C 976.42 503.14, 977.62 502.58, 979.64 501.41 C 981.67 500.24, 982.66 499.59, 984.20 498.14 C 985.75 496.68, 986.42 495.83, 987.37 494.15 C 988.32 492.47, 988.70 491.47, 988.95 489.74 C 989.21 488.00, 989.16 486.96, 988.64 485.45 C 988.13 483.94, 987.64 483.13, 986.38 482.19 C 985.12 481.24, 984.23 480.74, 982.36 480.71 C 980.49 480.69, 979.24 480.76, 977.03 482.05 C 974.81 483.34, 973.58 484.36, 971.29 487.16 C 968.99 489.96, 967.78 491.82, 965.55 496.05 C 963.32 500.28, 962.09 502.96, 960.15 508.31 C 958.21 513.66, 957.23 516.95, 955.85 522.79 C 954.47 528.63, 953.86 531.94, 953.26 537.52 C 952.66 543.11, 952.58 545.97, 952.86 550.71 C 953.14 555.46, 953.51 557.64, 954.67 561.25 C 955.82 564.86, 956.61 566.46, 958.62 568.76 C 960.62 571.06, 961.97 571.87, 964.68 572.75 C 967.40 573.64, 969.06 573.74, 972.19 573.17 C 975.33 572.61, 977.01 571.88, 980.37 569.92 C 983.73 567.97, 985.82 566.18, 989.00 563.40 C 992.19 560.62, 993.94 558.74, 996.29 556.03 C 998.64 553.32, 1000.05 551.25, 1000.74 549.85 C 1001.44 548.45, 1001.03 548.13, 999.78 549.04 C 998.54 549.95, 997.01 551.90, 994.53 554.39 C 992.04 556.88, 990.43 558.83, 987.34 561.49 C 984.25 564.14, 982.20 565.88, 979.07 567.68 C 975.94 569.48, 974.42 569.96, 971.69 570.49 C 968.96 571.02, 967.69 571.00, 965.44 570.33 C 963.19 569.66, 962.21 569.08, 960.45 567.14 C 958.69 565.19, 957.80 563.90, 956.64 560.59 C 955.48 557.28, 955.00 555.17, 954.65 550.59 C 954.30 546.01, 954.35 543.18, 954.91 537.69 C 955.47 532.21, 956.08 528.92, 957.46 523.18 C 958.85 517.43, 959.86 514.16, 961.86 508.95 C 963.86 503.73, 965.15 501.09, 967.46 497.10 C 969.78 493.12, 971.19 491.47, 973.43 489.01 C 975.67 486.55, 976.86 485.90, 978.67 484.79 C 980.47 483.69, 981.20 483.59, 982.44 483.47 C 983.67 483.36, 984.11 483.67, 984.83 484.22 C 985.55 484.78, 985.78 485.24, 986.03 486.25 C 986.29 487.26, 986.33 487.98, 986.10 489.27 C 985.86 490.56, 985.63 491.37, 984.85 492.70 C 984.08 494.04, 983.54 494.75, 982.20 495.96 C 980.86 497.17, 979.97 497.72, 978.13 498.73 C 976.30 499.75, 975.20 500.28, 973.01 501.03 C 970.83 501.79, 969.63 502.07, 967.22 502.51 C 964.82 502.96, 963.50 503.05, 960.97 503.24 C 958.45 503.43, 957.13 503.44, 954.59 503.47 C 952.04 503.51, 950.73 503.38, 948.25 503.42 C 945.78 503.45, 944.53 503.35, 942.21 503.65 C 939.88 503.94, 938.68 504.11, 936.62 504.89 C 934.56 505.66, 933.67 506.19, 931.91 507.52 C 930.15 508.85, 929.33 509.56, 927.83 511.55 C 926.33 513.53, 925.66 514.62, 924.42 517.43 C 923.18 520.25, 922.66 521.90, 921.62 525.63 C 920.59 529.35, 920.05 531.57, 919.23 536.04 C 918.41 540.51, 918.05 543.22, 917.51 547.96 C 916.97 552.71, 916.83 555.46, 916.53 559.77 C 916.22 564.09, 915.99 566.30, 915.99 569.53 C 915.99 572.77, 916.15 574.19, 916.54 575.93 C 916.94 577.68, 917.49 578.14, 917.99 578.26 C 918.48 578.37, 918.71 577.95, 919.02 576.50 C 919.34 575.05, 919.40 573.91, 919.57 571.01 C 919.75 568.10, 919.69 566.14, 919.90 561.99 C 920.10 557.84, 920.26 555.19, 920.61 550.25 C 920.95 545.31, 921.17 542.31, 921.62 537.29 C 922.07 532.27, 922.39 529.43, 922.85 525.16 C 923.31 520.88, 923.84 518.76, 923.93 515.90 C 924.01 513.03, 923.71 511.94, 923.27 510.84 C 922.82 509.73, 922.44 509.67, 921.69 510.35 C 920.93 511.04, 920.44 511.81, 919.49 514.25 C 918.54 516.68, 918.28 518.59, 916.94 522.54 C 915.59 526.48, 914.75 529.06, 912.76 533.96 C 910.77 538.86, 909.56 541.83, 906.98 547.04 C 904.39 552.24, 902.86 555.20, 899.85 560.00 C 896.84 564.80, 895.16 567.22, 891.93 571.03 C 888.69 574.85, 886.92 576.54, 883.67 579.09 C 880.42 581.63, 878.65 582.56, 875.67 583.76 C 872.70 584.97, 871.30 585.17, 868.80 585.12 C 866.30 585.06, 865.12 584.81, 863.17 583.50 C 861.21 582.18, 860.30 581.28, 859.03 578.54 C 857.75 575.81, 857.17 573.99, 856.80 569.82 C 856.43 565.64, 856.48 562.91, 857.17 557.65 C 857.86 552.39, 858.58 549.17, 860.27 543.51 C 861.95 537.85, 863.19 534.56, 865.61 529.35 C 868.03 524.14, 869.61 521.48, 872.36 517.46 C 875.11 513.43, 876.69 511.77, 879.35 509.22 C 882.01 506.66, 883.46 505.98, 885.64 504.67 C 887.83 503.36, 888.63 503.08, 890.27 502.67 C 891.91 502.25, 892.62 502.55, 893.83 502.60 C 895.04 502.65, 895.50 502.83, 896.34 502.91 C 897.18 503.00, 897.57 503.22, 898.04 503.02 C 898.50 502.81, 898.81 502.43, 898.66 501.88" style="stroke: black; fill: black;"/><path d="M 1033.14,498.49 C 1033.58 498.05, 1033.85 497.40, 1033.90 496.38 C 1033.94 495.36, 1033.93 494.51, 1033.37 493.39 C 1032.81 492.27, 1032.29 491.42, 1031.09 490.77 C 1029.90 490.12, 1029.09 489.82, 1027.39 490.13 C 1025.69 490.44, 1024.60 490.64, 1022.59 492.32 C 1020.57 493.99, 1019.49 495.24, 1017.30 498.52 C 1015.12 501.79, 1013.89 504.00, 1011.66 508.69 C 1009.42 513.38, 1008.12 516.42, 1006.14 521.96 C 1004.16 527.50, 1003.14 530.90, 1001.76 536.39 C 1000.38 541.88, 999.86 544.84, 999.25 549.40 C 998.63 553.97, 998.46 556.06, 998.68 559.22 C 998.90 562.39, 999.32 563.57, 1000.36 565.21 C 1001.39 566.86, 1002.26 567.27, 1003.83 567.43 C 1005.41 567.59, 1006.45 567.37, 1008.22 566.01 C 1009.98 564.65, 1010.92 563.58, 1012.66 560.62 C 1014.41 557.65, 1015.15 555.60, 1016.94 551.20 C 1018.72 546.79, 1019.68 543.91, 1021.59 538.57 C 1023.49 533.23, 1024.60 529.87, 1026.46 524.51 C 1028.32 519.15, 1029.34 516.07, 1030.88 511.77 C 1032.42 507.48, 1033.38 505.48, 1034.17 503.02 C 1034.95 500.56, 1034.84 499.64, 1034.82 499.47 C 1034.79 499.31, 1034.27 499.89, 1034.04 502.20 C 1033.82 504.52, 1033.82 506.62, 1033.69 511.04 C 1033.57 515.47, 1033.52 518.67, 1033.44 524.34 C 1033.35 530.01, 1033.31 533.61, 1033.27 539.40 C 1033.23 545.20, 1033.13 548.38, 1033.24 553.32 C 1033.35 558.26, 1033.37 560.57, 1033.82 564.10 C 1034.27 567.62, 1034.60 569.03, 1035.50 570.96 C 1036.40 572.89, 1037.19 573.25, 1038.33 573.75 C 1039.47 574.25, 1040.31 573.87, 1041.19 573.46 C 1042.07 573.04, 1042.62 572.22, 1042.75 571.68 C 1042.88 571.13, 1042.32 570.69, 1041.84 570.73 C 1041.37 570.77, 1040.94 571.53, 1040.37 571.86 C 1039.80 572.20, 1039.58 572.74, 1038.99 572.40 C 1038.41 572.06, 1038.04 571.88, 1037.45 570.16 C 1036.86 568.44, 1036.50 567.18, 1036.02 563.80 C 1035.55 560.42, 1035.28 558.14, 1035.09 553.26 C 1034.90 548.39, 1034.98 545.19, 1035.06 539.42 C 1035.13 533.65, 1035.25 530.06, 1035.48 524.40 C 1035.70 518.74, 1036.00 515.58, 1036.20 511.14 C 1036.40 506.69, 1036.77 504.59, 1036.48 502.17 C 1036.19 499.74, 1035.63 499.03, 1034.73 499.03 C 1033.84 499.03, 1033.16 499.75, 1032.01 502.16 C 1030.85 504.58, 1030.43 506.76, 1028.98 511.12 C 1027.53 515.47, 1026.59 518.57, 1024.76 523.93 C 1022.92 529.29, 1021.79 532.65, 1019.81 537.92 C 1017.83 543.20, 1016.80 546.07, 1014.86 550.30 C 1012.92 554.53, 1011.81 556.35, 1010.12 559.09 C 1008.43 561.83, 1007.66 562.67, 1006.42 564.00 C 1005.17 565.34, 1004.78 565.70, 1003.90 565.76 C 1003.02 565.83, 1002.58 565.66, 1002.00 564.33 C 1001.43 562.99, 1001.20 562.01, 1001.03 559.07 C 1000.86 556.13, 1000.66 554.09, 1001.14 549.63 C 1001.63 545.18, 1002.11 542.22, 1003.45 536.81 C 1004.78 531.40, 1005.81 528.01, 1007.82 522.57 C 1009.84 517.13, 1011.18 514.11, 1013.52 509.62 C 1015.86 505.12, 1017.27 503.04, 1019.51 500.09 C 1021.75 497.13, 1023.01 496.31, 1024.72 494.84 C 1026.43 493.37, 1027.06 493.12, 1028.05 492.75 C 1029.04 492.38, 1029.24 492.61, 1029.67 493.00 C 1030.10 493.39, 1029.98 493.93, 1030.20 494.70 C 1030.42 495.47, 1030.46 496.07, 1030.77 496.84 C 1031.08 497.61, 1031.27 498.24, 1031.74 498.57 C 1032.22 498.90, 1032.71 498.92, 1033.14 498.49" style="stroke: black; fill: black;"/><path d="M 1069.65,449.09 C 1069.29 449.52, 1069.13 449.62, 1068.86 451.26 C 1068.59 452.90, 1068.43 453.86, 1068.30 457.30 C 1068.16 460.74, 1068.39 463.16, 1068.19 468.48 C 1068.00 473.79, 1067.74 477.27, 1067.33 483.87 C 1066.93 490.47, 1066.63 494.43, 1066.16 501.48 C 1065.70 508.53, 1065.42 512.42, 1065.03 519.13 C 1064.64 525.84, 1064.45 529.23, 1064.23 535.03 C 1064.01 540.82, 1063.92 543.57, 1063.92 548.10 C 1063.92 552.64, 1063.88 554.67, 1064.24 557.71 C 1064.59 560.75, 1065.13 561.72, 1065.67 563.29 C 1066.22 564.86, 1066.57 565.13, 1066.95 565.54 C 1067.33 565.95, 1067.51 565.86, 1067.58 565.33 C 1067.65 564.81, 1067.49 564.48, 1067.29 562.91 C 1067.09 561.33, 1066.91 560.42, 1066.59 557.45 C 1066.28 554.48, 1065.88 552.54, 1065.71 548.07 C 1065.53 543.59, 1065.58 540.85, 1065.72 535.08 C 1065.86 529.30, 1066.04 525.91, 1066.41 519.21 C 1066.78 512.51, 1067.07 508.62, 1067.58 501.58 C 1068.09 494.53, 1068.41 490.58, 1068.95 483.99 C 1069.49 477.39, 1069.83 473.91, 1070.29 468.61 C 1070.75 463.30, 1071.07 460.89, 1071.27 457.44 C 1071.46 453.99, 1071.39 453.03, 1071.27 451.37 C 1071.14 449.71, 1070.97 449.58, 1070.65 449.12 C 1070.32 448.67, 1070.01 448.66, 1069.65 449.09" style="stroke: black; fill: black;"/><path d="M 1054.30,515.67 C 1054.58 516.17, 1054.89 516.54, 1056.05 517.02 C 1057.22 517.51, 1058.03 517.81, 1060.11 518.09 C 1062.18 518.37, 1063.60 518.56, 1066.44 518.42 C 1069.27 518.27, 1071.04 518.00, 1074.28 517.37 C 1077.52 516.75, 1079.29 516.29, 1082.64 515.30 C 1085.98 514.30, 1087.76 513.73, 1091.00 512.40 C 1094.25 511.07, 1095.93 510.31, 1098.88 508.64 C 1101.83 506.97, 1103.34 506.04, 1105.75 504.07 C 1108.15 502.09, 1109.27 500.94, 1110.89 498.76 C 1112.51 496.57, 1113.13 495.32, 1113.85 493.16 C 1114.56 491.01, 1114.72 489.79, 1114.46 487.98 C 1114.21 486.17, 1113.74 485.17, 1112.56 484.10 C 1111.38 483.03, 1110.44 482.57, 1108.57 482.61 C 1106.71 482.65, 1105.44 482.85, 1103.23 484.29 C 1101.03 485.73, 1099.80 486.88, 1097.56 489.81 C 1095.32 492.75, 1094.11 494.71, 1092.01 498.96 C 1089.92 503.20, 1088.75 505.91, 1087.09 511.02 C 1085.44 516.14, 1084.66 519.23, 1083.73 524.54 C 1082.81 529.85, 1082.51 532.78, 1082.46 537.57 C 1082.41 542.36, 1082.65 544.72, 1083.47 548.49 C 1084.29 552.26, 1084.91 553.92, 1086.55 556.41 C 1088.20 558.90, 1089.34 559.77, 1091.68 560.95 C 1094.02 562.13, 1095.44 562.45, 1098.26 562.31 C 1101.08 562.17, 1102.71 561.71, 1105.78 560.25 C 1108.85 558.80, 1110.44 557.72, 1113.59 555.03 C 1116.74 552.34, 1118.37 550.59, 1121.52 546.80 C 1124.67 543.02, 1126.28 540.70, 1129.32 536.11 C 1132.37 531.53, 1133.90 528.81, 1136.76 523.87 C 1139.62 518.92, 1141.07 516.09, 1143.63 511.39 C 1146.19 506.69, 1147.40 504.28, 1149.56 500.37 C 1151.72 496.45, 1152.78 494.67, 1154.43 491.82 C 1156.07 488.96, 1156.72 487.83, 1157.77 486.10 C 1158.82 484.36, 1159.12 483.80, 1159.68 483.13 C 1160.23 482.47, 1160.24 482.41, 1160.53 482.78 C 1160.83 483.15, 1160.78 483.62, 1161.17 484.98 C 1161.55 486.34, 1161.79 487.29, 1162.44 489.56 C 1163.10 491.84, 1163.67 493.25, 1164.44 496.36 C 1165.22 499.46, 1165.72 501.38, 1166.32 505.07 C 1166.92 508.75, 1167.20 510.88, 1167.46 514.78 C 1167.71 518.67, 1167.78 520.75, 1167.60 524.54 C 1167.42 528.32, 1167.21 530.26, 1166.57 533.68 C 1165.93 537.10, 1165.45 538.77, 1164.41 541.65 C 1163.37 544.52, 1162.71 545.82, 1161.38 548.07 C 1160.06 550.32, 1159.34 551.28, 1157.79 552.89 C 1156.23 554.51, 1155.30 555.12, 1153.60 556.15 C 1151.91 557.18, 1150.97 557.58, 1149.30 558.05 C 1147.64 558.51, 1146.79 558.55, 1145.27 558.49 C 1143.75 558.44, 1142.88 558.06, 1141.68 557.77 C 1140.48 557.47, 1140.07 557.29, 1139.28 557.02 C 1138.49 556.75, 1138.16 556.40, 1137.72 556.42 C 1137.28 556.44, 1137.00 556.65, 1137.08 557.14 C 1137.16 557.62, 1137.39 558.17, 1138.13 558.86 C 1138.87 559.55, 1139.38 560.05, 1140.79 560.58 C 1142.20 561.11, 1143.31 561.45, 1145.17 561.50 C 1147.04 561.56, 1148.12 561.42, 1150.10 560.85 C 1152.09 560.27, 1153.17 559.83, 1155.11 558.63 C 1157.06 557.44, 1158.09 556.70, 1159.85 554.87 C 1161.60 553.05, 1162.47 551.99, 1163.88 549.52 C 1165.30 547.05, 1165.91 545.60, 1166.93 542.52 C 1167.95 539.43, 1168.38 537.69, 1168.99 534.11 C 1169.59 530.54, 1169.79 528.54, 1169.97 524.65 C 1170.15 520.75, 1170.08 518.63, 1169.89 514.64 C 1169.69 510.65, 1169.44 508.48, 1168.99 504.69 C 1168.53 500.90, 1168.23 498.91, 1167.63 495.67 C 1167.04 492.42, 1166.78 490.87, 1166.02 488.48 C 1165.25 486.08, 1164.76 485.11, 1163.82 483.70 C 1162.87 482.30, 1162.30 481.84, 1161.27 481.46 C 1160.23 481.09, 1159.72 481.16, 1158.62 481.82 C 1157.53 482.49, 1157.03 483.02, 1155.78 484.79 C 1154.53 486.56, 1153.96 487.74, 1152.38 490.68 C 1150.80 493.61, 1149.93 495.48, 1147.87 499.46 C 1145.82 503.44, 1144.62 505.86, 1142.11 510.58 C 1139.59 515.29, 1138.15 518.11, 1135.30 523.02 C 1132.44 527.93, 1130.91 530.62, 1127.84 535.12 C 1124.78 539.61, 1123.14 541.88, 1119.99 545.50 C 1116.84 549.12, 1115.16 550.76, 1112.09 553.21 C 1109.01 555.66, 1107.42 556.48, 1104.62 557.74 C 1101.81 559.00, 1100.44 559.31, 1098.07 559.52 C 1095.70 559.73, 1094.64 559.68, 1092.75 558.78 C 1090.86 557.88, 1090.07 557.18, 1088.63 555.03 C 1087.19 552.87, 1086.40 551.50, 1085.54 548.01 C 1084.69 544.52, 1084.35 542.21, 1084.35 537.58 C 1084.35 532.94, 1084.61 530.04, 1085.52 524.85 C 1086.44 519.66, 1087.22 516.60, 1088.92 511.63 C 1090.61 506.65, 1091.83 503.99, 1094.00 499.98 C 1096.17 495.97, 1097.56 494.19, 1099.77 491.59 C 1101.98 488.99, 1103.24 488.26, 1105.05 486.97 C 1106.86 485.68, 1107.61 485.41, 1108.81 485.16 C 1110.02 484.90, 1110.44 485.09, 1111.07 485.70 C 1111.69 486.31, 1111.92 486.91, 1111.94 488.21 C 1111.97 489.51, 1111.88 490.46, 1111.20 492.21 C 1110.51 493.97, 1109.98 495.05, 1108.52 496.98 C 1107.06 498.90, 1106.09 499.99, 1103.90 501.85 C 1101.70 503.71, 1100.31 504.68, 1097.53 506.29 C 1094.75 507.91, 1093.13 508.66, 1090.00 509.93 C 1086.87 511.19, 1085.12 511.74, 1081.88 512.61 C 1078.63 513.47, 1076.89 513.86, 1073.78 514.25 C 1070.67 514.64, 1068.99 514.52, 1066.31 514.56 C 1063.63 514.59, 1062.34 514.45, 1060.39 514.42 C 1058.44 514.40, 1057.71 514.39, 1056.57 514.42 C 1055.42 514.45, 1055.11 514.32, 1054.66 514.57 C 1054.20 514.82, 1054.02 515.18, 1054.30 515.67" style="stroke: black; fill: black;"/><path d="M 1248.37,481.75 C 1247.95 482.08, 1247.73 482.17, 1247.24 483.60 C 1246.76 485.04, 1246.34 485.92, 1245.96 488.91 C 1245.58 491.90, 1245.64 493.98, 1245.36 498.58 C 1245.08 503.17, 1244.88 506.30, 1244.57 511.89 C 1244.25 517.47, 1244.01 520.89, 1243.78 526.50 C 1243.56 532.11, 1243.42 535.09, 1243.45 539.94 C 1243.47 544.80, 1243.52 547.10, 1243.91 550.78 C 1244.30 554.47, 1244.50 555.99, 1245.40 558.36 C 1246.31 560.73, 1247.01 561.61, 1248.44 562.64 C 1249.86 563.67, 1250.79 563.88, 1252.54 563.50 C 1254.29 563.13, 1255.37 562.66, 1257.18 560.76 C 1258.99 558.87, 1259.76 557.39, 1261.58 554.03 C 1263.41 550.66, 1264.34 548.50, 1266.32 543.92 C 1268.29 539.34, 1269.42 536.45, 1271.46 531.14 C 1273.50 525.82, 1274.58 522.62, 1276.52 517.33 C 1278.46 512.04, 1279.48 509.15, 1281.16 504.70 C 1282.84 500.25, 1283.85 498.17, 1284.94 495.08 C 1286.04 491.99, 1286.41 490.57, 1286.64 489.25 C 1286.87 487.93, 1286.47 487.64, 1286.10 488.49 C 1285.73 489.34, 1285.18 490.48, 1284.80 493.50 C 1284.43 496.52, 1284.49 498.86, 1284.22 503.59 C 1283.95 508.33, 1283.75 511.58, 1283.45 517.16 C 1283.16 522.75, 1282.98 526.13, 1282.73 531.51 C 1282.48 536.89, 1282.32 539.64, 1282.21 544.06 C 1282.10 548.48, 1281.92 550.49, 1282.18 553.61 C 1282.44 556.74, 1282.77 557.99, 1283.53 559.69 C 1284.29 561.40, 1284.84 561.88, 1285.99 562.15 C 1287.14 562.42, 1287.92 562.26, 1289.26 561.03 C 1290.60 559.80, 1291.37 558.84, 1292.70 556.00 C 1294.03 553.15, 1294.47 551.15, 1295.92 546.80 C 1297.38 542.46, 1298.20 539.60, 1299.96 534.27 C 1301.72 528.95, 1302.76 525.62, 1304.72 520.17 C 1306.69 514.71, 1307.81 511.63, 1309.78 507.00 C 1311.74 502.38, 1312.88 500.19, 1314.54 497.05 C 1316.20 493.90, 1317.04 492.74, 1318.07 491.28 C 1319.11 489.82, 1319.32 489.35, 1319.72 489.75 C 1320.13 490.14, 1319.91 490.86, 1320.10 493.24 C 1320.29 495.61, 1320.59 497.50, 1320.67 501.63 C 1320.76 505.76, 1320.73 508.66, 1320.53 513.87 C 1320.33 519.09, 1320.08 522.45, 1319.69 527.71 C 1319.29 532.97, 1318.99 535.81, 1318.55 540.17 C 1318.12 544.53, 1317.67 546.51, 1317.51 549.51 C 1317.36 552.51, 1317.40 553.67, 1317.77 555.17 C 1318.14 556.66, 1318.59 557.13, 1319.35 556.99 C 1320.11 556.86, 1320.75 556.46, 1321.58 554.49 C 1322.41 552.52, 1322.56 550.97, 1323.50 547.15 C 1324.44 543.33, 1324.84 540.62, 1326.28 535.40 C 1327.73 530.17, 1328.63 526.67, 1330.73 521.01 C 1332.82 515.35, 1334.23 512.00, 1336.75 507.09 C 1339.27 502.17, 1340.83 499.77, 1343.30 496.45 C 1345.78 493.13, 1347.18 492.04, 1349.12 490.49 C 1351.06 488.94, 1351.77 488.57, 1353.01 488.71 C 1354.25 488.85, 1354.53 489.35, 1355.31 491.19 C 1356.10 493.03, 1356.40 494.44, 1356.93 497.89 C 1357.47 501.34, 1357.77 503.76, 1358.01 508.44 C 1358.25 513.12, 1358.22 516.12, 1358.12 521.28 C 1358.03 526.45, 1357.79 529.45, 1357.53 534.28 C 1357.28 539.12, 1357.02 541.58, 1356.83 545.44 C 1356.64 549.30, 1356.39 550.95, 1356.59 553.59 C 1356.78 556.22, 1357.18 557.15, 1357.79 558.60 C 1358.40 560.05, 1358.96 560.32, 1359.62 560.82 C 1360.28 561.31, 1360.74 561.14, 1361.08 561.07 C 1361.42 561.00, 1361.41 560.69, 1361.31 560.45 C 1361.21 560.22, 1360.88 560.39, 1360.57 559.89 C 1360.25 559.39, 1360.03 559.26, 1359.74 557.96 C 1359.46 556.67, 1359.28 555.91, 1359.14 553.42 C 1359.00 550.93, 1358.96 549.33, 1359.03 545.52 C 1359.11 541.71, 1359.29 539.22, 1359.51 534.38 C 1359.73 529.54, 1359.97 526.54, 1360.12 521.33 C 1360.28 516.13, 1360.39 513.13, 1360.29 508.36 C 1360.20 503.59, 1360.21 501.13, 1359.64 497.47 C 1359.08 493.81, 1358.75 492.14, 1357.46 490.06 C 1356.18 487.97, 1355.17 487.33, 1353.23 487.05 C 1351.28 486.77, 1350.05 487.02, 1347.75 488.67 C 1345.45 490.32, 1344.24 491.78, 1341.73 495.31 C 1339.22 498.83, 1337.74 501.28, 1335.21 506.30 C 1332.68 511.32, 1331.26 514.69, 1329.08 520.39 C 1326.89 526.09, 1325.94 529.59, 1324.28 534.80 C 1322.62 540.01, 1321.86 542.65, 1320.79 546.43 C 1319.72 550.21, 1319.29 551.69, 1318.94 553.71 C 1318.59 555.73, 1318.94 556.25, 1319.05 556.52 C 1319.17 556.79, 1319.33 556.44, 1319.53 555.07 C 1319.74 553.69, 1319.86 552.61, 1320.07 549.67 C 1320.29 546.72, 1320.29 544.71, 1320.61 540.35 C 1320.92 535.99, 1321.21 533.13, 1321.63 527.85 C 1322.04 522.58, 1322.34 519.23, 1322.67 513.98 C 1323.01 508.73, 1323.27 505.86, 1323.31 501.62 C 1323.35 497.38, 1323.50 495.35, 1322.89 492.79 C 1322.28 490.22, 1321.53 489.33, 1320.28 488.78 C 1319.02 488.22, 1318.15 488.54, 1316.61 489.99 C 1315.08 491.44, 1314.30 492.76, 1312.59 496.02 C 1310.89 499.29, 1309.99 501.59, 1308.09 506.30 C 1306.18 511.01, 1305.06 514.10, 1303.08 519.57 C 1301.09 525.04, 1300.02 528.37, 1298.14 533.65 C 1296.26 538.93, 1295.35 541.78, 1293.67 545.98 C 1291.99 550.17, 1290.99 551.91, 1289.74 554.62 C 1288.49 557.33, 1288.10 558.24, 1287.41 559.52 C 1286.71 560.79, 1286.65 561.10, 1286.26 561.00 C 1285.87 560.91, 1285.77 560.57, 1285.44 559.05 C 1285.11 557.53, 1284.87 556.40, 1284.62 553.41 C 1284.37 550.41, 1284.20 548.44, 1284.19 544.08 C 1284.17 539.72, 1284.32 536.95, 1284.57 531.60 C 1284.82 526.24, 1285.00 522.85, 1285.43 517.29 C 1285.86 511.73, 1286.23 508.50, 1286.72 503.79 C 1287.21 499.08, 1287.77 496.82, 1287.87 493.74 C 1287.98 490.66, 1287.75 489.42, 1287.23 488.40 C 1286.71 487.37, 1286.19 487.45, 1285.28 488.62 C 1284.37 489.79, 1283.84 491.15, 1282.66 494.24 C 1281.48 497.33, 1280.94 499.56, 1279.38 504.06 C 1277.82 508.56, 1276.81 511.45, 1274.88 516.73 C 1272.96 522.01, 1271.86 525.21, 1269.76 530.47 C 1267.66 535.74, 1266.49 538.60, 1264.38 543.04 C 1262.27 547.48, 1261.12 549.54, 1259.22 552.67 C 1257.32 555.81, 1256.34 556.94, 1254.88 558.71 C 1253.43 560.48, 1252.98 561.03, 1251.92 561.52 C 1250.86 562.01, 1250.45 561.97, 1249.60 561.18 C 1248.74 560.39, 1248.35 559.69, 1247.64 557.56 C 1246.94 555.43, 1246.53 554.05, 1246.07 550.53 C 1245.60 547.00, 1245.40 544.71, 1245.30 539.92 C 1245.20 535.13, 1245.33 532.15, 1245.57 526.57 C 1245.82 520.99, 1246.07 517.57, 1246.52 512.02 C 1246.97 506.47, 1247.24 503.34, 1247.81 498.80 C 1248.38 494.27, 1248.98 492.29, 1249.35 489.34 C 1249.72 486.38, 1249.66 485.48, 1249.66 484.00 C 1249.66 482.53, 1249.61 482.41, 1249.35 481.96 C 1249.10 481.51, 1248.79 481.42, 1248.37 481.75" style="stroke: black; fill: black;"/><path d="M 1411.56,484.81 C 1411.40 484.15, 1410.95 483.40, 1409.92 482.57 C 1408.88 481.75, 1408.09 481.19, 1406.38 480.70 C 1404.68 480.20, 1403.50 479.88, 1401.41 480.09 C 1399.31 480.30, 1398.12 480.66, 1395.90 481.76 C 1393.68 482.86, 1392.40 483.70, 1390.29 485.58 C 1388.18 487.45, 1387.04 488.70, 1385.35 491.14 C 1383.66 493.58, 1382.79 495.06, 1381.84 497.76 C 1380.89 500.45, 1380.57 501.91, 1380.60 504.60 C 1380.62 507.30, 1380.96 508.68, 1381.98 511.22 C 1382.99 513.76, 1383.87 514.99, 1385.67 517.30 C 1387.48 519.61, 1388.79 520.60, 1391.00 522.77 C 1393.21 524.94, 1394.58 525.96, 1396.74 528.15 C 1398.90 530.35, 1400.06 531.47, 1401.79 533.73 C 1403.52 535.99, 1404.41 537.17, 1405.41 539.45 C 1406.41 541.73, 1406.73 542.86, 1406.80 545.12 C 1406.87 547.38, 1406.66 548.56, 1405.76 550.75 C 1404.87 552.93, 1404.07 554.02, 1402.33 556.05 C 1400.58 558.08, 1399.34 559.16, 1397.05 560.88 C 1394.76 562.61, 1393.31 563.47, 1390.87 564.68 C 1388.43 565.88, 1387.06 566.38, 1384.83 566.92 C 1382.61 567.45, 1381.46 567.60, 1379.75 567.36 C 1378.03 567.12, 1377.29 566.83, 1376.25 565.72 C 1375.22 564.61, 1375.07 563.55, 1374.58 561.80 C 1374.09 560.04, 1374.11 558.70, 1373.80 556.94 C 1373.49 555.18, 1373.44 553.79, 1373.02 552.99 C 1372.59 552.20, 1372.13 552.13, 1371.67 552.96 C 1371.21 553.80, 1370.74 555.20, 1370.70 557.17 C 1370.67 559.13, 1370.75 560.70, 1371.50 562.78 C 1372.24 564.87, 1372.85 566.15, 1374.41 567.59 C 1375.97 569.03, 1377.08 569.51, 1379.28 569.97 C 1381.49 570.43, 1382.86 570.35, 1385.46 569.87 C 1388.06 569.39, 1389.58 568.86, 1392.28 567.57 C 1394.98 566.27, 1396.45 565.29, 1398.95 563.40 C 1401.45 561.50, 1402.85 560.42, 1404.77 558.11 C 1406.68 555.80, 1407.56 554.44, 1408.54 551.83 C 1409.51 549.21, 1409.73 547.74, 1409.65 545.03 C 1409.57 542.32, 1409.23 540.91, 1408.14 538.28 C 1407.05 535.66, 1406.04 534.35, 1404.19 531.90 C 1402.34 529.46, 1401.08 528.32, 1398.88 526.06 C 1396.67 523.80, 1395.30 522.73, 1393.16 520.59 C 1391.02 518.44, 1389.86 517.42, 1388.17 515.32 C 1386.48 513.22, 1385.64 512.23, 1384.71 510.09 C 1383.77 507.94, 1383.49 506.84, 1383.51 504.60 C 1383.53 502.36, 1383.88 501.17, 1384.81 498.88 C 1385.74 496.58, 1386.60 495.28, 1388.16 493.14 C 1389.72 491.00, 1390.77 489.86, 1392.63 488.18 C 1394.48 486.51, 1395.60 485.72, 1397.42 484.76 C 1399.25 483.81, 1400.12 483.57, 1401.73 483.42 C 1403.34 483.27, 1404.13 483.69, 1405.47 484.03 C 1406.82 484.37, 1407.41 484.74, 1408.46 485.12 C 1409.51 485.49, 1410.10 485.96, 1410.72 485.90 C 1411.34 485.84, 1411.72 485.48, 1411.56 484.81" style="stroke: black; fill: black;"/><path d="M 1434.36,439.91 C 1434.00 440.51, 1433.85 440.92, 1433.67 442.89 C 1433.50 444.87, 1433.54 446.09, 1433.51 449.78 C 1433.47 453.46, 1433.65 455.90, 1433.52 461.34 C 1433.40 466.78, 1433.30 470.29, 1432.88 476.96 C 1432.46 483.63, 1432.12 487.62, 1431.42 494.70 C 1430.72 501.77, 1430.22 505.67, 1429.39 512.33 C 1428.56 518.99, 1428.08 522.35, 1427.26 527.98 C 1426.44 533.62, 1425.98 536.26, 1425.30 540.50 C 1424.61 544.74, 1424.06 546.57, 1423.82 549.20 C 1423.58 551.84, 1423.75 552.79, 1424.09 553.67 C 1424.43 554.55, 1424.89 554.59, 1425.54 553.59 C 1426.19 552.58, 1426.69 551.62, 1427.35 548.63 C 1428.00 545.64, 1427.92 543.27, 1428.82 538.66 C 1429.72 534.04, 1430.29 530.90, 1431.84 525.54 C 1433.40 520.19, 1434.48 516.97, 1436.60 511.90 C 1438.73 506.82, 1440.07 504.10, 1442.45 500.15 C 1444.84 496.19, 1446.28 494.54, 1448.52 492.13 C 1450.76 489.72, 1451.86 489.03, 1453.67 488.09 C 1455.48 487.14, 1456.23 487.01, 1457.55 487.40 C 1458.88 487.79, 1459.29 488.28, 1460.31 490.03 C 1461.32 491.78, 1461.82 493.00, 1462.61 496.15 C 1463.40 499.31, 1463.89 501.45, 1464.27 505.80 C 1464.65 510.15, 1464.61 512.95, 1464.51 517.89 C 1464.40 522.83, 1464.12 525.71, 1463.75 530.52 C 1463.39 535.33, 1463.07 537.84, 1462.69 541.94 C 1462.31 546.04, 1461.94 547.94, 1461.85 551.03 C 1461.76 554.13, 1461.84 555.40, 1462.23 557.41 C 1462.62 559.43, 1463.16 560.07, 1463.80 561.11 C 1464.44 562.14, 1464.86 562.29, 1465.43 562.59 C 1466.01 562.89, 1466.39 562.74, 1466.67 562.61 C 1466.95 562.48, 1466.91 562.15, 1466.82 561.94 C 1466.73 561.73, 1466.49 561.90, 1466.24 561.55 C 1465.99 561.21, 1465.89 561.13, 1465.56 560.22 C 1465.23 559.32, 1464.81 558.86, 1464.58 557.03 C 1464.35 555.21, 1464.36 554.08, 1464.41 551.09 C 1464.46 548.11, 1464.56 546.19, 1464.82 542.11 C 1465.09 538.02, 1465.39 535.50, 1465.74 530.67 C 1466.09 525.83, 1466.39 522.96, 1466.57 517.95 C 1466.75 512.94, 1466.87 510.13, 1466.63 505.63 C 1466.40 501.14, 1466.21 498.88, 1465.39 495.47 C 1464.57 492.05, 1463.99 490.57, 1462.53 488.57 C 1461.06 486.57, 1460.04 485.96, 1458.08 485.46 C 1456.11 484.97, 1454.93 485.05, 1452.69 486.08 C 1450.45 487.11, 1449.25 488.01, 1446.88 490.63 C 1444.51 493.25, 1443.22 495.07, 1440.83 499.19 C 1438.45 503.30, 1437.12 506.05, 1434.95 511.20 C 1432.78 516.36, 1431.70 519.60, 1429.98 524.98 C 1428.26 530.36, 1427.53 533.49, 1426.36 538.10 C 1425.18 542.72, 1424.57 545.00, 1424.11 548.03 C 1423.66 551.07, 1423.87 552.14, 1424.07 553.28 C 1424.27 554.42, 1424.67 554.49, 1425.11 553.73 C 1425.55 552.98, 1425.87 552.10, 1426.28 549.51 C 1426.68 546.91, 1426.64 545.02, 1427.14 540.76 C 1427.63 536.49, 1428.03 533.84, 1428.76 528.19 C 1429.48 522.54, 1429.95 519.17, 1430.77 512.50 C 1431.58 505.83, 1432.07 501.93, 1432.81 494.84 C 1433.55 487.76, 1433.92 483.76, 1434.46 477.07 C 1435.00 470.39, 1435.17 466.87, 1435.53 461.43 C 1435.89 455.98, 1436.11 453.54, 1436.25 449.84 C 1436.39 446.13, 1436.39 444.89, 1436.23 442.90 C 1436.07 440.91, 1435.83 440.49, 1435.46 439.90 C 1435.08 439.30, 1434.71 439.31, 1434.36 439.91" style="stroke: black; fill: black;"/><path d="M 1514.76,496.26 C 1514.63 495.61, 1514.19 494.91, 1513.26 494.14 C 1512.32 493.37, 1511.65 492.79, 1510.10 492.40 C 1508.54 492.01, 1507.44 491.69, 1505.49 492.19 C 1503.53 492.68, 1502.47 493.01, 1500.32 494.88 C 1498.17 496.74, 1497.05 498.09, 1494.73 501.52 C 1492.41 504.94, 1491.04 507.26, 1488.72 512.00 C 1486.41 516.75, 1485.07 519.88, 1483.16 525.24 C 1481.26 530.61, 1480.34 533.86, 1479.20 538.82 C 1478.07 543.77, 1477.64 546.33, 1477.48 550.02 C 1477.33 553.72, 1477.59 555.21, 1478.42 557.29 C 1479.25 559.37, 1480.08 559.93, 1481.63 560.42 C 1483.19 560.91, 1484.31 560.77, 1486.19 559.74 C 1488.07 558.70, 1489.15 557.83, 1491.04 555.25 C 1492.93 552.67, 1493.74 550.86, 1495.62 546.84 C 1497.51 542.82, 1498.53 540.19, 1500.47 535.17 C 1502.41 530.14, 1503.45 526.90, 1505.33 521.72 C 1507.21 516.54, 1508.26 513.51, 1509.85 509.26 C 1511.44 505.02, 1512.45 502.83, 1513.28 500.49 C 1514.11 498.16, 1514.01 497.32, 1514.01 497.58 C 1514.00 497.84, 1513.49 498.90, 1513.25 501.78 C 1513.00 504.67, 1513.02 507.20, 1512.78 512.01 C 1512.54 516.81, 1512.32 520.19, 1512.05 525.80 C 1511.78 531.40, 1511.60 534.82, 1511.44 540.03 C 1511.28 545.23, 1511.15 547.82, 1511.23 551.81 C 1511.31 555.80, 1511.32 557.49, 1511.86 560.00 C 1512.40 562.51, 1512.92 563.35, 1513.94 564.37 C 1514.97 565.39, 1515.80 565.34, 1516.99 565.11 C 1518.19 564.88, 1519.13 564.21, 1519.93 563.23 C 1520.74 562.24, 1521.11 560.97, 1521.02 560.18 C 1520.93 559.40, 1520.18 559.06, 1519.50 559.31 C 1518.82 559.55, 1518.24 560.57, 1517.62 561.41 C 1516.99 562.24, 1516.88 563.09, 1516.39 563.48 C 1515.90 563.88, 1515.60 564.17, 1515.16 563.38 C 1514.73 562.60, 1514.58 561.89, 1514.21 559.56 C 1513.85 557.23, 1513.52 555.64, 1513.35 551.74 C 1513.17 547.85, 1513.19 545.25, 1513.34 540.08 C 1513.48 534.92, 1513.71 531.50, 1514.07 525.91 C 1514.44 520.32, 1514.80 516.97, 1515.17 512.16 C 1515.54 507.34, 1516.08 504.82, 1515.92 501.82 C 1515.75 498.81, 1515.28 497.59, 1514.35 497.13 C 1513.42 496.68, 1512.54 497.28, 1511.25 499.56 C 1509.96 501.84, 1509.43 504.24, 1507.89 508.55 C 1506.35 512.85, 1505.42 515.91, 1503.57 521.09 C 1501.72 526.27, 1500.64 529.50, 1498.62 534.43 C 1496.60 539.37, 1495.50 541.97, 1493.48 545.77 C 1491.46 549.56, 1490.26 551.04, 1488.53 553.41 C 1486.79 555.78, 1486.07 556.54, 1484.78 557.64 C 1483.49 558.74, 1482.95 559.10, 1482.06 558.90 C 1481.17 558.70, 1480.80 558.39, 1480.33 556.64 C 1479.85 554.88, 1479.54 553.60, 1479.69 550.12 C 1479.83 546.63, 1480.01 544.08, 1481.05 539.23 C 1482.09 534.38, 1483.00 531.13, 1484.90 525.87 C 1486.81 520.61, 1488.18 517.50, 1490.56 512.93 C 1492.94 508.36, 1494.43 506.12, 1496.80 503.00 C 1499.17 499.88, 1500.54 498.92, 1502.42 497.34 C 1504.31 495.75, 1504.86 495.43, 1506.23 495.06 C 1507.60 494.70, 1508.17 495.19, 1509.26 495.51 C 1510.36 495.83, 1510.78 496.28, 1511.71 496.65 C 1512.63 497.03, 1513.29 497.46, 1513.90 497.38 C 1514.51 497.30, 1514.89 496.90, 1514.76 496.26" style="stroke: black; fill: black;"/><path d="M 1540.86,452.85 C 1540.51 453.22, 1540.33 453.22, 1540.05 454.72 C 1539.76 456.23, 1539.57 457.17, 1539.43 460.38 C 1539.28 463.58, 1539.52 465.79, 1539.31 470.74 C 1539.10 475.69, 1538.88 479.00, 1538.38 485.12 C 1537.87 491.24, 1537.43 494.85, 1536.78 501.35 C 1536.13 507.85, 1535.77 511.41, 1535.13 517.63 C 1534.49 523.85, 1534.10 527.03, 1533.58 532.45 C 1533.06 537.86, 1532.88 540.45, 1532.55 544.71 C 1532.22 548.96, 1531.90 550.84, 1531.93 553.72 C 1531.96 556.60, 1532.15 557.70, 1532.70 559.12 C 1533.25 560.54, 1533.74 560.98, 1534.68 560.80 C 1535.62 560.62, 1536.37 560.19, 1537.40 558.23 C 1538.44 556.27, 1538.71 554.67, 1539.86 551.01 C 1541.01 547.34, 1541.51 544.90, 1543.17 539.89 C 1544.82 534.88, 1545.87 531.61, 1548.13 525.96 C 1550.39 520.30, 1551.83 516.98, 1554.46 511.62 C 1557.10 506.25, 1558.65 503.47, 1561.31 499.14 C 1563.97 494.80, 1565.44 492.85, 1567.77 489.95 C 1570.10 487.04, 1571.26 486.16, 1572.95 484.63 C 1574.65 483.09, 1575.27 482.92, 1576.23 482.28 C 1577.18 481.63, 1577.35 481.59, 1577.73 481.39 C 1578.11 481.18, 1578.03 481.35, 1578.14 481.25 C 1578.25 481.14, 1578.39 481.04, 1578.27 480.86 C 1578.16 480.68, 1578.15 480.38, 1577.56 480.33 C 1576.98 480.28, 1576.58 480.10, 1575.34 480.60 C 1574.11 481.11, 1573.23 481.25, 1571.38 482.86 C 1569.54 484.48, 1568.44 485.60, 1566.13 488.68 C 1563.82 491.75, 1562.45 493.80, 1559.83 498.25 C 1557.20 502.69, 1555.66 505.49, 1553.00 510.90 C 1550.34 516.31, 1548.90 519.65, 1546.54 525.31 C 1544.18 530.96, 1543.07 534.23, 1541.20 539.19 C 1539.33 544.15, 1538.46 546.51, 1537.17 550.10 C 1535.88 553.69, 1535.32 555.16, 1534.75 557.15 C 1534.18 559.14, 1534.37 559.72, 1534.30 560.05 C 1534.23 560.38, 1534.35 560.07, 1534.39 558.80 C 1534.42 557.53, 1534.47 556.51, 1534.49 553.71 C 1534.50 550.92, 1534.32 549.04, 1534.46 544.81 C 1534.60 540.59, 1534.75 538.00, 1535.18 532.59 C 1535.61 527.18, 1535.99 523.99, 1536.61 517.78 C 1537.24 511.56, 1537.60 508.00, 1538.30 501.51 C 1539.00 495.01, 1539.46 491.40, 1540.12 485.28 C 1540.77 479.16, 1541.06 475.85, 1541.56 470.90 C 1542.07 465.95, 1542.46 463.76, 1542.64 460.54 C 1542.82 457.32, 1542.62 456.35, 1542.46 454.82 C 1542.29 453.29, 1542.12 453.28, 1541.80 452.89 C 1541.48 452.50, 1541.21 452.48, 1540.86 452.85" style="stroke: black; fill: black;"/><path d="M 1553.28,515.69 C 1553.06 516.49, 1553.09 517.47, 1553.41 519.39 C 1553.73 521.31, 1554.10 522.59, 1554.89 525.30 C 1555.68 528.00, 1556.44 529.71, 1557.36 532.93 C 1558.28 536.16, 1558.77 537.96, 1559.49 541.42 C 1560.21 544.89, 1560.50 546.83, 1560.96 550.26 C 1561.43 553.69, 1561.50 555.49, 1561.81 558.57 C 1562.12 561.65, 1562.11 563.17, 1562.51 565.67 C 1562.91 568.18, 1563.22 569.39, 1563.83 571.08 C 1564.43 572.78, 1564.87 573.30, 1565.53 574.15 C 1566.18 574.99, 1566.58 575.10, 1567.10 575.31 C 1567.62 575.52, 1567.92 575.33, 1568.14 575.19 C 1568.36 575.04, 1568.27 574.75, 1568.21 574.58 C 1568.15 574.40, 1568.01 574.59, 1567.83 574.30 C 1567.65 574.00, 1567.62 573.89, 1567.33 573.10 C 1567.03 572.31, 1566.72 571.90, 1566.34 570.33 C 1565.96 568.75, 1565.78 567.64, 1565.44 565.23 C 1565.10 562.82, 1565.01 561.32, 1564.64 558.26 C 1564.27 555.19, 1564.10 553.37, 1563.60 549.90 C 1563.11 546.43, 1562.82 544.44, 1562.17 540.90 C 1561.52 537.35, 1561.11 535.50, 1560.36 532.17 C 1559.61 528.84, 1559.24 526.96, 1558.40 524.24 C 1557.56 521.52, 1556.92 520.35, 1556.14 518.57 C 1555.37 516.80, 1555.09 515.95, 1554.52 515.37 C 1553.94 514.80, 1553.50 514.88, 1553.28 515.69" style="stroke: black; fill: black;"/><path d="M 1613.36,504.11 C 1613.20 503.47, 1612.70 502.76, 1611.74 502.13 C 1610.78 501.50, 1610.07 501.08, 1608.57 500.94 C 1607.07 500.79, 1606.06 500.65, 1604.26 501.40 C 1602.46 502.15, 1601.43 502.63, 1599.55 504.69 C 1597.68 506.75, 1596.81 508.18, 1594.89 511.71 C 1592.97 515.24, 1591.85 517.57, 1589.94 522.32 C 1588.03 527.08, 1586.93 530.18, 1585.35 535.49 C 1583.77 540.81, 1582.99 543.98, 1582.04 548.89 C 1581.08 553.80, 1580.74 556.28, 1580.57 560.03 C 1580.41 563.79, 1580.53 565.35, 1581.21 567.67 C 1581.89 570.00, 1582.61 570.70, 1583.97 571.66 C 1585.34 572.63, 1586.26 572.85, 1588.04 572.49 C 1589.82 572.13, 1590.97 571.73, 1592.86 569.88 C 1594.75 568.03, 1595.62 566.62, 1597.50 563.23 C 1599.39 559.85, 1600.34 557.63, 1602.30 552.97 C 1604.27 548.30, 1605.36 545.26, 1607.33 539.92 C 1609.29 534.58, 1610.35 531.29, 1612.12 526.27 C 1613.90 521.24, 1614.97 518.36, 1616.18 514.78 C 1617.39 511.19, 1617.87 509.59, 1618.19 508.33 C 1618.51 507.08, 1618.06 507.10, 1617.78 508.50 C 1617.49 509.89, 1617.12 511.57, 1616.76 515.30 C 1616.39 519.02, 1616.27 521.97, 1615.94 527.11 C 1615.62 532.26, 1615.40 535.66, 1615.13 541.02 C 1614.85 546.37, 1614.66 549.27, 1614.58 553.87 C 1614.50 558.47, 1614.41 560.65, 1614.72 564.01 C 1615.03 567.37, 1615.28 568.75, 1616.13 570.66 C 1616.97 572.58, 1617.77 572.96, 1618.95 573.61 C 1620.13 574.26, 1621.03 574.14, 1622.04 573.91 C 1623.04 573.68, 1623.71 572.98, 1623.97 572.47 C 1624.24 571.97, 1623.82 571.48, 1623.35 571.39 C 1622.89 571.31, 1622.35 571.91, 1621.64 572.05 C 1620.93 572.19, 1620.52 572.53, 1619.82 572.10 C 1619.12 571.66, 1618.68 571.54, 1618.13 569.88 C 1617.58 568.22, 1617.38 566.99, 1617.07 563.79 C 1616.76 560.59, 1616.58 558.42, 1616.58 553.89 C 1616.59 549.35, 1616.77 546.45, 1617.11 541.13 C 1617.45 535.81, 1617.83 532.42, 1618.31 527.30 C 1618.78 522.17, 1619.27 519.28, 1619.47 515.50 C 1619.66 511.72, 1619.76 509.96, 1619.27 508.40 C 1618.79 506.83, 1618.11 506.56, 1617.06 507.68 C 1616.01 508.80, 1615.38 510.42, 1614.04 514.01 C 1612.69 517.61, 1612.03 520.60, 1610.34 525.65 C 1608.65 530.71, 1607.59 533.98, 1605.59 539.27 C 1603.60 544.56, 1602.45 547.59, 1600.37 552.11 C 1598.28 556.63, 1597.13 558.75, 1595.18 561.86 C 1593.23 564.98, 1592.17 566.00, 1590.61 567.71 C 1589.06 569.42, 1588.54 569.89, 1587.42 570.41 C 1586.30 570.92, 1585.82 570.93, 1585.01 570.27 C 1584.21 569.61, 1583.83 569.14, 1583.38 567.11 C 1582.93 565.08, 1582.66 563.69, 1582.77 560.11 C 1582.88 556.54, 1583.04 554.06, 1583.92 549.25 C 1584.80 544.43, 1585.57 541.26, 1587.16 536.04 C 1588.75 530.82, 1589.89 527.74, 1591.89 523.14 C 1593.89 518.54, 1595.13 516.27, 1597.15 513.03 C 1599.17 509.78, 1600.32 508.70, 1601.98 506.93 C 1603.64 505.15, 1604.21 504.74, 1605.46 504.15 C 1606.71 503.57, 1607.24 503.89, 1608.24 504.01 C 1609.24 504.13, 1609.59 504.50, 1610.45 504.76 C 1611.31 505.02, 1611.96 505.43, 1612.55 505.30 C 1613.13 505.17, 1613.52 504.74, 1613.36 504.11" style="stroke: black; fill: black;"/><path d="M 1649.41,462.04 C 1649.04 462.34, 1648.87 462.34, 1648.50 463.64 C 1648.12 464.94, 1647.70 465.71, 1647.51 468.53 C 1647.33 471.36, 1647.70 473.31, 1647.56 477.78 C 1647.42 482.24, 1647.19 485.20, 1646.80 490.85 C 1646.41 496.50, 1646.13 499.95, 1645.61 506.03 C 1645.08 512.11, 1644.74 515.44, 1644.16 521.26 C 1643.58 527.09, 1643.20 530.13, 1642.70 535.16 C 1642.20 540.19, 1641.99 542.57, 1641.66 546.41 C 1641.33 550.24, 1641.03 551.93, 1641.04 554.34 C 1641.05 556.74, 1641.26 557.57, 1641.71 558.42 C 1642.16 559.27, 1642.57 559.35, 1643.29 558.58 C 1644.01 557.82, 1644.56 557.02, 1645.30 554.60 C 1646.05 552.18, 1646.07 550.27, 1647.02 546.49 C 1647.98 542.71, 1648.50 540.13, 1650.08 535.69 C 1651.66 531.26, 1652.76 528.52, 1654.92 524.33 C 1657.08 520.14, 1658.45 517.91, 1660.88 514.75 C 1663.31 511.60, 1664.72 510.32, 1667.08 508.55 C 1669.43 506.79, 1670.62 506.31, 1672.65 505.92 C 1674.68 505.52, 1675.62 505.67, 1677.23 506.58 C 1678.84 507.49, 1679.47 508.30, 1680.68 510.48 C 1681.89 512.66, 1682.58 514.17, 1683.28 517.48 C 1683.97 520.80, 1684.20 523.00, 1684.18 527.05 C 1684.15 531.09, 1683.90 533.51, 1683.15 537.70 C 1682.39 541.90, 1681.78 544.17, 1680.40 548.01 C 1679.02 551.86, 1678.10 553.78, 1676.26 556.91 C 1674.43 560.05, 1673.31 561.46, 1671.22 563.70 C 1669.13 565.93, 1667.95 566.79, 1665.81 568.09 C 1663.67 569.39, 1662.58 569.84, 1660.52 570.19 C 1658.45 570.54, 1657.35 570.42, 1655.48 569.85 C 1653.62 569.27, 1652.70 568.69, 1651.21 567.31 C 1649.71 565.94, 1649.12 564.79, 1648.02 562.99 C 1646.92 561.18, 1646.44 559.90, 1645.69 558.27 C 1644.95 556.64, 1644.73 555.89, 1644.30 554.83 C 1643.87 553.77, 1643.75 553.48, 1643.53 552.97 C 1643.31 552.46, 1643.36 552.42, 1643.19 552.26 C 1643.02 552.10, 1642.88 552.02, 1642.65 552.17 C 1642.43 552.32, 1642.23 552.37, 1642.05 553.02 C 1641.87 553.67, 1641.63 554.14, 1641.76 555.44 C 1641.89 556.73, 1642.02 557.63, 1642.70 559.49 C 1643.39 561.36, 1643.87 562.74, 1645.18 564.77 C 1646.48 566.80, 1647.30 568.07, 1649.21 569.63 C 1651.11 571.19, 1652.34 571.91, 1654.69 572.56 C 1657.05 573.21, 1658.46 573.30, 1660.97 572.88 C 1663.49 572.46, 1664.83 571.95, 1667.26 570.46 C 1669.68 568.97, 1670.91 567.90, 1673.11 565.42 C 1675.31 562.94, 1676.39 561.39, 1678.27 558.06 C 1680.14 554.73, 1681.05 552.74, 1682.47 548.75 C 1683.88 544.76, 1684.51 542.44, 1685.33 538.11 C 1686.16 533.78, 1686.47 531.32, 1686.60 527.09 C 1686.73 522.86, 1686.65 520.57, 1685.98 516.95 C 1685.31 513.33, 1684.78 511.48, 1683.25 508.98 C 1681.72 506.48, 1680.55 505.52, 1678.35 504.44 C 1676.14 503.36, 1674.77 503.15, 1672.23 503.58 C 1669.68 504.01, 1668.22 504.63, 1665.61 506.60 C 1662.99 508.57, 1661.66 510.09, 1659.16 513.45 C 1656.65 516.80, 1655.31 519.08, 1653.07 523.37 C 1650.82 527.65, 1649.71 530.42, 1647.92 534.88 C 1646.14 539.34, 1645.35 541.88, 1644.14 545.66 C 1642.93 549.44, 1642.31 551.28, 1641.88 553.78 C 1641.44 556.28, 1641.78 557.26, 1641.97 558.17 C 1642.16 559.08, 1642.53 559.08, 1642.84 558.33 C 1643.16 557.58, 1643.36 556.78, 1643.54 554.43 C 1643.73 552.07, 1643.58 550.37, 1643.76 546.55 C 1643.94 542.72, 1644.03 540.34, 1644.43 535.31 C 1644.83 530.29, 1645.19 527.25, 1645.75 521.42 C 1646.32 515.59, 1646.66 512.26, 1647.25 506.18 C 1647.84 500.10, 1648.15 496.66, 1648.71 491.01 C 1649.27 485.36, 1649.57 482.40, 1650.05 477.95 C 1650.53 473.50, 1650.96 471.58, 1651.12 468.76 C 1651.28 465.94, 1651.01 465.17, 1650.86 463.85 C 1650.71 462.53, 1650.64 462.52, 1650.35 462.16 C 1650.07 461.80, 1649.78 461.75, 1649.41 462.04" style="stroke: black; fill: black;"/><path d="M 1712.70,452.37 C 1712.20 452.97, 1711.84 453.51, 1711.34 455.57 C 1710.85 457.63, 1710.62 459.01, 1710.21 462.67 C 1709.79 466.33, 1709.68 468.76, 1709.25 473.87 C 1708.83 478.97, 1708.60 482.16, 1708.07 488.19 C 1707.54 494.23, 1707.20 497.67, 1706.61 504.05 C 1706.03 510.43, 1705.72 513.90, 1705.15 520.09 C 1704.58 526.28, 1704.22 529.45, 1703.76 534.99 C 1703.31 540.52, 1703.15 543.21, 1702.86 547.77 C 1702.57 552.34, 1702.38 554.40, 1702.30 557.82 C 1702.23 561.24, 1702.23 562.68, 1702.48 564.87 C 1702.74 567.07, 1703.14 567.70, 1703.56 568.80 C 1703.98 569.90, 1704.25 570.11, 1704.57 570.38 C 1704.90 570.66, 1705.09 570.56, 1705.19 570.18 C 1705.29 569.79, 1705.16 569.57, 1705.10 568.47 C 1705.04 567.37, 1705.00 566.80, 1704.89 564.67 C 1704.79 562.55, 1704.61 561.19, 1704.57 557.83 C 1704.53 554.46, 1704.52 552.40, 1704.67 547.86 C 1704.83 543.32, 1704.95 540.64, 1705.34 535.11 C 1705.73 529.58, 1706.08 526.41, 1706.63 520.22 C 1707.19 514.04, 1707.50 510.56, 1708.13 504.19 C 1708.75 497.82, 1709.12 494.38, 1709.76 488.36 C 1710.41 482.34, 1710.72 479.16, 1711.36 474.09 C 1712.01 469.03, 1712.46 466.64, 1712.98 463.02 C 1713.50 459.40, 1713.78 458.08, 1713.95 455.99 C 1714.12 453.90, 1714.07 453.31, 1713.82 452.58 C 1713.57 451.86, 1713.19 451.78, 1712.70 452.37" style="stroke: black; fill: black;"/><path d="M 1724.85,537.32 C 1725.61 537.52, 1726.53 537.55, 1728.26 537.07 C 1729.99 536.58, 1731.25 536.21, 1733.51 534.90 C 1735.76 533.59, 1737.11 532.62, 1739.54 530.52 C 1741.97 528.43, 1743.29 527.03, 1745.66 524.43 C 1748.03 521.84, 1749.29 520.29, 1751.40 517.54 C 1753.52 514.79, 1754.64 513.31, 1756.24 510.67 C 1757.84 508.03, 1758.55 506.67, 1759.40 504.35 C 1760.26 502.03, 1760.51 500.93, 1760.51 499.06 C 1760.51 497.20, 1760.32 496.29, 1759.39 495.03 C 1758.46 493.77, 1757.65 493.10, 1755.86 492.77 C 1754.06 492.44, 1752.78 492.30, 1750.42 493.37 C 1748.06 494.44, 1746.68 495.44, 1744.07 498.13 C 1741.46 500.81, 1739.96 502.71, 1737.38 506.81 C 1734.81 510.91, 1733.30 513.60, 1731.18 518.63 C 1729.06 523.66, 1727.98 526.77, 1726.77 531.98 C 1725.57 537.19, 1725.16 540.02, 1725.17 544.66 C 1725.17 549.30, 1725.50 551.58, 1726.80 555.19 C 1728.11 558.80, 1729.18 560.40, 1731.70 562.73 C 1734.21 565.05, 1735.96 565.80, 1739.38 566.81 C 1742.81 567.81, 1744.90 567.86, 1748.82 567.74 C 1752.74 567.62, 1754.97 567.17, 1758.98 566.21 C 1762.98 565.25, 1765.30 564.33, 1768.83 562.94 C 1772.35 561.55, 1774.16 560.72, 1776.60 559.26 C 1779.05 557.80, 1780.27 556.54, 1781.04 555.63 C 1781.82 554.72, 1781.60 554.43, 1780.47 554.71 C 1779.34 554.98, 1777.91 555.82, 1775.40 556.99 C 1772.88 558.16, 1771.28 559.20, 1767.88 560.58 C 1764.49 561.95, 1762.23 562.93, 1758.41 563.88 C 1754.58 564.83, 1752.42 565.21, 1748.74 565.34 C 1745.07 565.46, 1743.14 565.36, 1740.04 564.50 C 1736.93 563.65, 1735.48 563.05, 1733.22 561.04 C 1730.96 559.04, 1729.98 557.75, 1728.74 554.48 C 1727.51 551.20, 1727.09 549.07, 1727.06 544.65 C 1727.02 540.23, 1727.37 537.44, 1728.55 532.39 C 1729.72 527.34, 1730.80 524.26, 1732.94 519.38 C 1735.07 514.51, 1736.61 511.87, 1739.24 508.02 C 1741.86 504.17, 1743.53 502.49, 1746.04 500.13 C 1748.55 497.77, 1749.88 497.20, 1751.79 496.22 C 1753.69 495.24, 1754.40 495.23, 1755.58 495.23 C 1756.76 495.24, 1757.19 495.51, 1757.70 496.25 C 1758.20 496.99, 1758.29 497.51, 1758.10 498.92 C 1757.91 500.33, 1757.62 501.25, 1756.74 503.29 C 1755.86 505.34, 1755.22 506.63, 1753.70 509.14 C 1752.19 511.65, 1751.22 513.18, 1749.19 515.84 C 1747.16 518.51, 1745.91 520.03, 1743.55 522.45 C 1741.20 524.87, 1739.80 526.08, 1737.42 527.95 C 1735.04 529.82, 1733.69 530.51, 1731.63 531.81 C 1729.58 533.11, 1728.58 533.58, 1727.14 534.44 C 1725.71 535.30, 1724.93 535.53, 1724.47 536.10 C 1724.01 536.68, 1724.09 537.13, 1724.85 537.32" style="stroke: black; fill: black;"/><path d="M 1856.73,499.72 C 1856.40 500.23, 1856.27 500.50, 1856.15 502.22 C 1856.03 503.93, 1856.08 504.94, 1856.14 508.30 C 1856.21 511.65, 1856.54 513.84, 1856.48 518.98 C 1856.42 524.12, 1856.25 527.42, 1855.85 534.00 C 1855.45 540.58, 1855.08 544.53, 1854.48 551.87 C 1853.87 559.22, 1853.45 563.32, 1852.81 570.73 C 1852.16 578.15, 1851.81 582.07, 1851.25 588.96 C 1850.69 595.85, 1850.46 599.35, 1850.01 605.18 C 1849.55 611.01, 1849.37 613.72, 1848.97 618.11 C 1848.57 622.50, 1848.12 624.46, 1848.00 627.14 C 1847.89 629.82, 1848.15 630.75, 1848.38 631.52 C 1848.61 632.28, 1848.98 632.18, 1849.16 630.97 C 1849.33 629.75, 1849.47 628.63, 1849.24 625.42 C 1849.02 622.22, 1848.49 619.95, 1848.04 614.92 C 1847.58 609.88, 1847.21 606.63, 1846.96 600.25 C 1846.71 593.88, 1846.61 590.12, 1846.78 583.05 C 1846.95 575.97, 1847.16 572.04, 1847.80 564.87 C 1848.45 557.70, 1848.91 553.95, 1850.02 547.20 C 1851.13 540.45, 1851.78 537.14, 1853.35 531.10 C 1854.92 525.06, 1855.87 522.11, 1857.87 516.99 C 1859.86 511.86, 1861.04 509.42, 1863.31 505.49 C 1865.58 501.55, 1866.84 499.89, 1869.21 497.31 C 1871.57 494.73, 1872.87 493.83, 1875.12 492.60 C 1877.38 491.38, 1878.48 491.08, 1880.49 491.18 C 1882.50 491.28, 1883.45 491.73, 1885.18 493.11 C 1886.92 494.49, 1887.79 495.53, 1889.17 498.09 C 1890.55 500.65, 1891.30 502.38, 1892.10 505.91 C 1892.89 509.44, 1893.18 511.63, 1893.14 515.74 C 1893.10 519.86, 1892.84 522.27, 1891.89 526.48 C 1890.93 530.70, 1890.14 532.95, 1888.37 536.84 C 1886.60 540.72, 1885.37 542.64, 1883.04 545.89 C 1880.72 549.13, 1879.29 550.69, 1876.73 553.07 C 1874.17 555.44, 1872.69 556.30, 1870.25 557.78 C 1867.80 559.26, 1866.58 559.80, 1864.50 560.45 C 1862.41 561.10, 1861.42 561.25, 1859.82 561.05 C 1858.22 560.85, 1857.54 560.47, 1856.48 559.45 C 1855.42 558.44, 1855.14 557.41, 1854.53 555.98 C 1853.93 554.54, 1853.83 553.61, 1853.45 552.26 C 1853.07 550.92, 1853.05 549.85, 1852.64 549.26 C 1852.22 548.66, 1851.78 548.59, 1851.38 549.27 C 1850.99 549.95, 1850.60 551.07, 1850.65 552.67 C 1850.70 554.27, 1850.82 555.49, 1851.63 557.26 C 1852.45 559.02, 1853.14 560.24, 1854.71 561.50 C 1856.28 562.76, 1857.37 563.24, 1859.48 563.55 C 1861.59 563.86, 1862.83 563.73, 1865.27 563.04 C 1867.71 562.35, 1869.05 561.74, 1871.67 560.09 C 1874.29 558.44, 1875.74 557.37, 1878.37 554.78 C 1881.00 552.19, 1882.43 550.55, 1884.81 547.14 C 1887.19 543.72, 1888.44 541.73, 1890.27 537.70 C 1892.10 533.66, 1892.93 531.35, 1893.96 526.96 C 1895.00 522.58, 1895.31 520.10, 1895.44 515.79 C 1895.57 511.47, 1895.36 509.20, 1894.62 505.38 C 1893.88 501.56, 1893.29 499.59, 1891.73 496.70 C 1890.17 493.81, 1889.05 492.52, 1886.82 490.93 C 1884.60 489.34, 1883.19 488.86, 1880.60 488.75 C 1878.02 488.64, 1876.51 488.95, 1873.91 490.38 C 1871.31 491.82, 1870.05 493.06, 1867.62 495.91 C 1865.19 498.76, 1864.01 500.52, 1861.77 504.62 C 1859.53 508.73, 1858.39 511.22, 1856.44 516.44 C 1854.49 521.67, 1853.56 524.65, 1852.02 530.76 C 1850.48 536.87, 1849.84 540.19, 1848.73 546.99 C 1847.63 553.79, 1847.18 557.54, 1846.51 564.75 C 1845.83 571.95, 1845.62 575.90, 1845.38 583.01 C 1845.14 590.12, 1845.22 593.88, 1845.30 600.30 C 1845.38 606.71, 1845.60 609.98, 1845.78 615.06 C 1845.96 620.14, 1845.83 622.46, 1846.19 625.70 C 1846.55 628.94, 1846.96 630.06, 1847.58 631.26 C 1848.21 632.46, 1848.74 632.51, 1849.32 631.72 C 1849.89 630.94, 1850.15 630.02, 1850.44 627.32 C 1850.74 624.63, 1850.57 622.64, 1850.77 618.23 C 1850.98 613.83, 1851.11 611.12, 1851.46 605.28 C 1851.82 599.45, 1852.03 595.95, 1852.55 589.06 C 1853.07 582.18, 1853.42 578.26, 1854.08 570.85 C 1854.73 563.43, 1855.16 559.34, 1855.83 551.99 C 1856.51 544.65, 1856.90 540.70, 1857.45 534.11 C 1858.00 527.53, 1858.25 524.23, 1858.59 519.06 C 1858.92 513.89, 1859.13 511.66, 1859.14 508.27 C 1859.15 504.88, 1858.91 503.83, 1858.64 502.10 C 1858.37 500.38, 1858.17 500.14, 1857.79 499.66 C 1857.41 499.19, 1857.06 499.21, 1856.73 499.72" style="stroke: black; fill: black;"/><path d="M 1932.80,500.31 C 1932.78 499.72, 1932.47 499.08, 1931.75 498.42 C 1931.03 497.76, 1930.48 497.36, 1929.19 497.01 C 1927.90 496.67, 1927.04 496.37, 1925.30 496.70 C 1923.56 497.03, 1922.42 497.18, 1920.48 498.66 C 1918.54 500.13, 1917.57 501.21, 1915.59 504.07 C 1913.61 506.92, 1912.51 508.80, 1910.58 512.93 C 1908.65 517.07, 1907.56 519.80, 1905.96 524.76 C 1904.37 529.71, 1903.58 532.77, 1902.63 537.72 C 1901.68 542.67, 1901.32 545.34, 1901.21 549.50 C 1901.10 553.67, 1901.17 555.61, 1902.08 558.55 C 1902.99 561.48, 1903.93 562.64, 1905.75 564.18 C 1907.56 565.73, 1908.79 566.10, 1911.15 566.26 C 1913.51 566.43, 1915.00 566.22, 1917.55 565.00 C 1920.10 563.78, 1921.45 562.75, 1923.88 560.15 C 1926.31 557.54, 1927.57 555.80, 1929.72 551.98 C 1931.87 548.16, 1932.96 545.75, 1934.63 541.05 C 1936.30 536.35, 1937.02 533.47, 1938.05 528.49 C 1939.09 523.51, 1939.46 520.67, 1939.81 516.14 C 1940.17 511.62, 1940.15 509.35, 1939.83 505.86 C 1939.50 502.36, 1939.07 500.90, 1938.19 498.67 C 1937.31 496.45, 1936.53 495.80, 1935.43 494.74 C 1934.32 493.68, 1933.60 493.61, 1932.66 493.38 C 1931.72 493.15, 1931.26 493.38, 1930.72 493.60 C 1930.18 493.82, 1930.03 494.17, 1929.97 494.48 C 1929.91 494.79, 1930.20 495.03, 1930.42 495.15 C 1930.64 495.28, 1930.73 495.09, 1931.07 495.10 C 1931.41 495.11, 1931.55 495.00, 1932.13 495.21 C 1932.70 495.43, 1933.19 495.31, 1933.95 496.17 C 1934.70 497.04, 1935.20 497.55, 1935.91 499.53 C 1936.61 501.52, 1937.10 502.80, 1937.48 506.10 C 1937.85 509.39, 1938.04 511.60, 1937.78 516.00 C 1937.51 520.40, 1937.17 523.23, 1936.15 528.10 C 1935.14 532.97, 1934.40 535.81, 1932.71 540.36 C 1931.03 544.90, 1929.88 547.24, 1927.72 550.81 C 1925.55 554.38, 1924.19 555.92, 1921.89 558.22 C 1919.58 560.52, 1918.33 561.19, 1916.20 562.30 C 1914.07 563.41, 1913.03 563.75, 1911.22 563.79 C 1909.42 563.83, 1908.55 563.70, 1907.19 562.51 C 1905.83 561.32, 1905.21 560.42, 1904.44 557.83 C 1903.67 555.24, 1903.30 553.49, 1903.32 549.54 C 1903.34 545.59, 1903.64 542.92, 1904.56 538.09 C 1905.47 533.26, 1906.27 530.22, 1907.90 525.39 C 1909.52 520.57, 1910.67 517.88, 1912.69 513.97 C 1914.71 510.05, 1916.05 508.37, 1918.00 505.82 C 1919.96 503.28, 1920.87 502.44, 1922.45 501.23 C 1924.02 500.03, 1924.69 500.01, 1925.88 499.78 C 1927.07 499.56, 1927.54 499.89, 1928.40 500.10 C 1929.27 500.31, 1929.51 500.56, 1930.20 500.82 C 1930.88 501.07, 1931.33 501.47, 1931.85 501.37 C 1932.37 501.27, 1932.82 500.90, 1932.80 500.31" style="stroke: black; fill: black;"/><path d="M 1960.56,492.45 C 1960.10 492.74, 1959.83 492.84, 1959.26 494.19 C 1958.68 495.54, 1958.21 496.40, 1957.68 499.19 C 1957.15 501.98, 1957.11 503.95, 1956.59 508.16 C 1956.06 512.36, 1955.68 515.13, 1955.05 520.22 C 1954.42 525.30, 1954.00 528.45, 1953.44 533.59 C 1952.89 538.73, 1952.56 541.47, 1952.27 545.91 C 1951.98 550.35, 1951.83 552.46, 1951.97 555.79 C 1952.11 559.11, 1952.29 560.47, 1952.97 562.53 C 1953.65 564.59, 1954.20 565.30, 1955.36 566.07 C 1956.52 566.85, 1957.33 566.98, 1958.77 566.40 C 1960.21 565.83, 1961.12 565.27, 1962.55 563.18 C 1963.99 561.09, 1964.52 559.51, 1965.96 555.97 C 1967.40 552.42, 1968.16 550.03, 1969.77 545.45 C 1971.37 540.88, 1972.32 537.91, 1973.97 533.11 C 1975.63 528.31, 1976.60 525.50, 1978.05 521.44 C 1979.51 517.38, 1980.44 515.28, 1981.24 512.81 C 1982.05 510.34, 1981.99 509.37, 1982.10 509.09 C 1982.21 508.81, 1981.85 509.43, 1981.77 511.41 C 1981.69 513.39, 1981.68 515.21, 1981.70 518.99 C 1981.73 522.76, 1981.80 525.58, 1981.90 530.29 C 1982.00 535.01, 1982.00 537.95, 1982.20 542.56 C 1982.40 547.16, 1982.47 549.58, 1982.91 553.32 C 1983.34 557.05, 1983.54 558.77, 1984.38 561.24 C 1985.22 563.72, 1985.87 564.60, 1987.10 565.70 C 1988.34 566.80, 1989.13 567.01, 1990.58 566.75 C 1992.02 566.49, 1992.88 566.11, 1994.32 564.40 C 1995.75 562.69, 1996.41 561.46, 1997.76 558.20 C 1999.11 554.94, 1999.72 552.70, 2001.06 548.10 C 2002.40 543.50, 2003.15 540.50, 2004.44 535.20 C 2005.72 529.91, 2006.41 526.67, 2007.47 521.62 C 2008.53 516.57, 2009.01 513.90, 2009.74 509.94 C 2010.46 505.98, 2010.77 504.38, 2011.10 501.84 C 2011.43 499.29, 2011.39 498.53, 2011.40 497.22 C 2011.42 495.91, 2011.31 495.75, 2011.17 495.29 C 2011.02 494.84, 2010.82 494.96, 2010.68 494.94 C 2010.54 494.93, 2010.43 495.20, 2010.48 495.22 C 2010.54 495.24, 2010.93 495.12, 2010.95 495.05 C 2010.97 494.97, 2010.76 494.79, 2010.57 494.83 C 2010.39 494.86, 2010.23 494.77, 2010.02 495.21 C 2009.81 495.65, 2009.80 495.75, 2009.52 497.01 C 2009.25 498.26, 2009.01 498.98, 2008.63 501.49 C 2008.25 504.01, 2008.24 505.64, 2007.63 509.59 C 2007.03 513.53, 2006.62 516.21, 2005.60 521.24 C 2004.58 526.26, 2003.88 529.49, 2002.53 534.73 C 2001.19 539.97, 2000.37 542.96, 1998.87 547.42 C 1997.37 551.87, 1996.38 553.96, 1995.01 557.02 C 1993.64 560.08, 1992.99 561.11, 1992.01 562.72 C 1991.03 564.34, 1990.82 564.76, 1990.11 565.10 C 1989.40 565.44, 1989.10 565.37, 1988.45 564.44 C 1987.79 563.52, 1987.48 562.76, 1986.84 560.48 C 1986.20 558.20, 1985.73 556.63, 1985.25 553.02 C 1984.76 549.42, 1984.59 547.02, 1984.42 542.47 C 1984.24 537.92, 1984.34 534.98, 1984.38 530.28 C 1984.41 525.57, 1984.67 522.78, 1984.61 518.95 C 1984.55 515.13, 1984.62 513.24, 1984.07 511.14 C 1983.52 509.05, 1982.90 508.32, 1981.87 508.47 C 1980.83 508.61, 1980.08 509.41, 1978.90 511.86 C 1977.72 514.31, 1977.33 516.60, 1975.96 520.72 C 1974.58 524.83, 1973.69 527.64, 1972.02 532.43 C 1970.36 537.22, 1969.37 540.19, 1967.63 544.67 C 1965.90 549.15, 1964.90 551.47, 1963.34 554.83 C 1961.78 558.19, 1960.94 559.49, 1959.82 561.47 C 1958.71 563.44, 1958.47 564.03, 1957.78 564.70 C 1957.08 565.38, 1956.86 565.39, 1956.34 564.83 C 1955.82 564.28, 1955.57 563.76, 1955.17 561.92 C 1954.78 560.09, 1954.55 558.85, 1954.38 555.67 C 1954.21 552.49, 1954.10 550.40, 1954.30 546.02 C 1954.50 541.65, 1954.81 538.91, 1955.38 533.81 C 1955.95 528.70, 1956.38 525.55, 1957.15 520.51 C 1957.91 515.46, 1958.38 512.71, 1959.20 508.58 C 1960.03 504.45, 1960.78 502.63, 1961.28 499.86 C 1961.77 497.09, 1961.63 496.15, 1961.68 494.73 C 1961.73 493.31, 1961.75 493.21, 1961.53 492.75 C 1961.30 492.30, 1961.01 492.17, 1960.56 492.45" style="stroke: black; fill: black;"/><path d="M 2021.60,530.22 C 2022.11 530.52, 2022.63 530.68, 2023.89 530.51 C 2025.15 530.33, 2026.03 530.25, 2027.89 529.35 C 2029.75 528.44, 2031.04 527.76, 2033.19 525.98 C 2035.35 524.21, 2036.49 522.93, 2038.66 520.47 C 2040.83 518.00, 2042.08 516.46, 2044.03 513.66 C 2045.97 510.86, 2046.93 509.28, 2048.40 506.47 C 2049.88 503.65, 2050.58 502.20, 2051.41 499.60 C 2052.23 496.99, 2052.47 495.63, 2052.52 493.44 C 2052.56 491.25, 2052.41 490.18, 2051.64 488.66 C 2050.88 487.15, 2050.19 486.39, 2048.70 485.87 C 2047.21 485.35, 2046.20 485.22, 2044.21 486.07 C 2042.22 486.91, 2040.96 487.61, 2038.75 490.10 C 2036.53 492.59, 2035.34 494.45, 2033.13 498.50 C 2030.93 502.55, 2029.67 505.16, 2027.72 510.36 C 2025.77 515.55, 2024.71 518.76, 2023.39 524.47 C 2022.07 530.18, 2021.55 533.50, 2021.11 538.90 C 2020.66 544.30, 2020.67 547.03, 2021.16 551.47 C 2021.65 555.91, 2022.11 557.93, 2023.54 561.11 C 2024.98 564.30, 2026.03 565.57, 2028.33 567.39 C 2030.63 569.21, 2032.15 569.76, 2035.04 570.22 C 2037.92 570.67, 2039.64 570.55, 2042.76 569.68 C 2045.87 568.82, 2047.52 568.02, 2050.61 565.90 C 2053.69 563.78, 2055.27 562.36, 2058.18 559.09 C 2061.08 555.82, 2062.52 553.77, 2065.12 549.56 C 2067.72 545.36, 2068.98 542.78, 2071.18 538.08 C 2073.38 533.38, 2074.39 530.58, 2076.13 526.08 C 2077.88 521.58, 2078.64 519.17, 2079.89 515.59 C 2081.14 512.00, 2081.79 510.37, 2082.38 508.15 C 2082.96 505.93, 2082.87 505.08, 2082.82 504.49 C 2082.76 503.91, 2082.43 504.03, 2082.09 505.23 C 2081.76 506.44, 2081.42 507.62, 2081.13 510.54 C 2080.85 513.47, 2080.93 515.65, 2080.67 519.86 C 2080.41 524.07, 2080.20 526.85, 2079.83 531.61 C 2079.46 536.37, 2079.19 539.18, 2078.83 543.67 C 2078.47 548.17, 2078.24 550.49, 2078.03 554.08 C 2077.83 557.67, 2077.67 559.36, 2077.81 561.63 C 2077.95 563.90, 2078.23 564.73, 2078.75 565.42 C 2079.27 566.11, 2079.77 566.08, 2080.42 565.09 C 2081.07 564.11, 2081.55 563.17, 2081.99 560.49 C 2082.43 557.81, 2082.23 555.77, 2082.63 551.69 C 2083.04 547.62, 2083.29 544.86, 2084.02 540.10 C 2084.74 535.33, 2085.17 532.46, 2086.25 527.88 C 2087.34 523.29, 2087.99 520.93, 2089.44 517.16 C 2090.90 513.39, 2091.82 511.70, 2093.52 509.03 C 2095.22 506.35, 2096.13 505.38, 2097.96 503.77 C 2099.79 502.16, 2100.68 501.71, 2102.68 500.98 C 2104.67 500.24, 2105.93 500.21, 2107.93 500.09 C 2109.92 499.96, 2111.04 500.25, 2112.66 500.33 C 2114.28 500.41, 2114.96 500.48, 2116.05 500.48 C 2117.13 500.48, 2117.63 500.53, 2118.08 500.33 C 2118.52 500.13, 2118.61 499.85, 2118.28 499.46 C 2117.96 499.08, 2117.52 498.83, 2116.46 498.40 C 2115.40 497.97, 2114.73 497.60, 2112.97 497.32 C 2111.22 497.05, 2109.93 496.80, 2107.67 497.03 C 2105.41 497.25, 2103.96 497.48, 2101.67 498.44 C 2099.38 499.40, 2098.26 499.98, 2096.23 501.84 C 2094.19 503.71, 2093.25 504.86, 2091.49 507.77 C 2089.74 510.69, 2088.91 512.49, 2087.46 516.42 C 2086.01 520.34, 2085.39 522.74, 2084.25 527.40 C 2083.12 532.06, 2082.69 534.94, 2081.80 539.72 C 2080.90 544.50, 2080.46 547.24, 2079.78 551.31 C 2079.10 555.38, 2078.59 557.37, 2078.40 560.07 C 2078.22 562.77, 2078.58 563.76, 2078.84 564.79 C 2079.11 565.83, 2079.41 565.90, 2079.72 565.26 C 2080.03 564.63, 2080.24 563.85, 2080.39 561.63 C 2080.53 559.42, 2080.34 557.75, 2080.46 554.19 C 2080.58 550.63, 2080.65 548.31, 2080.98 543.84 C 2081.30 539.36, 2081.58 536.56, 2082.07 531.81 C 2082.56 527.07, 2082.92 524.32, 2083.43 520.12 C 2083.95 515.91, 2084.54 513.77, 2084.64 510.77 C 2084.74 507.77, 2084.43 506.47, 2083.93 505.12 C 2083.43 503.76, 2082.90 503.56, 2082.12 504.01 C 2081.34 504.45, 2080.90 505.19, 2080.02 507.36 C 2079.14 509.53, 2078.87 511.26, 2077.73 514.87 C 2076.59 518.47, 2075.95 520.91, 2074.30 525.39 C 2072.65 529.87, 2071.64 532.65, 2069.47 537.28 C 2067.29 541.90, 2066.02 544.44, 2063.44 548.51 C 2060.85 552.57, 2059.38 554.54, 2056.54 557.60 C 2053.69 560.66, 2052.11 561.92, 2049.20 563.79 C 2046.30 565.67, 2044.77 566.23, 2042.01 566.97 C 2039.26 567.72, 2037.86 567.84, 2035.42 567.53 C 2032.99 567.22, 2031.81 566.90, 2029.83 565.44 C 2027.85 563.97, 2026.89 563.03, 2025.53 560.19 C 2024.17 557.35, 2023.58 555.48, 2023.04 551.25 C 2022.50 547.02, 2022.42 544.32, 2022.83 539.04 C 2023.23 533.76, 2023.73 530.46, 2025.06 524.86 C 2026.40 519.27, 2027.47 516.08, 2029.49 511.04 C 2031.51 506.01, 2032.85 503.45, 2035.16 499.67 C 2037.47 495.90, 2038.98 494.41, 2041.04 492.18 C 2043.10 489.95, 2044.05 489.41, 2045.46 488.54 C 2046.87 487.67, 2047.27 487.62, 2048.09 487.83 C 2048.90 488.03, 2049.18 488.47, 2049.52 489.56 C 2049.86 490.65, 2049.97 491.45, 2049.77 493.27 C 2049.58 495.09, 2049.33 496.30, 2048.53 498.66 C 2047.74 501.03, 2047.17 502.44, 2045.78 505.10 C 2044.40 507.76, 2043.52 509.32, 2041.62 511.96 C 2039.72 514.59, 2038.44 516.05, 2036.28 518.26 C 2034.12 520.47, 2032.84 521.43, 2030.81 523.02 C 2028.78 524.60, 2027.69 525.20, 2026.13 526.19 C 2024.58 527.19, 2023.99 527.42, 2023.04 527.99 C 2022.09 528.56, 2021.66 528.59, 2021.37 529.03 C 2021.09 529.48, 2021.10 529.93, 2021.60 530.22" style="stroke: black; fill: black;"/></svg>