<svg xmlns="http://www.w3.org/2000/svg" viewBox="0 15.84000015258789 21 42.970001220703125" data-asc="1.17626953125" width="21" height="42.970001220703125"><defs/><g fill="#ffffff"><g transform="translate(0, 0)"><path d="M0 58.81L0 15.84L13.18 15.84Q16.48 15.84 18.16 17.35Q19.85 18.85 20.42 21.55Q21.00 24.24 21.00 27.88Q21.00 31.40 20.10 33.50Q19.21 35.60 16.75 36.40Q18.77 36.82 19.59 38.42Q20.41 40.01 20.41 42.55L20.41 58.81L11.94 58.81L11.94 41.99Q11.94 40.11 11.17 39.66Q10.40 39.21 8.69 39.21L8.69 58.81L0 58.81M8.74 31.76L10.82 31.76Q12.60 31.76 12.60 27.88Q12.60 25.37 12.21 24.58Q11.82 23.80 10.74 23.80L8.74 23.80L8.74 31.76Z"/></g></g></svg>