<svg xmlns="http://www.w3.org/2000/svg" viewBox="0 15.449999809265137 21.09000015258789 43.75" data-asc="1.17626953125" width="21.09000015258789" height="43.75"><defs/><g fill="#ffffff"><g transform="translate(0, 0)"><path d="M11.08 59.20Q5.20 59.20 2.60 56.27Q0 53.34 0 46.95L0 42.75L8.50 42.75L8.50 48.12Q8.50 49.61 8.95 50.45Q9.40 51.29 10.52 51.29Q11.69 51.29 12.15 50.61Q12.60 49.93 12.60 48.36Q12.60 46.39 12.21 45.06Q11.82 43.73 10.85 42.52Q9.89 41.31 8.18 39.70L4.32 36.04Q0 31.96 0 26.71Q0 21.22 2.55 18.33Q5.10 15.45 9.94 15.45Q15.84 15.45 18.32 18.60Q20.80 21.75 20.80 28.17L12.06 28.17L12.06 25.22Q12.06 24.34 11.56 23.85Q11.06 23.36 10.21 23.36Q9.18 23.36 8.70 23.94Q8.23 24.51 8.23 25.42Q8.23 26.32 8.72 27.37Q9.20 28.42 10.64 29.79L15.60 34.55Q17.09 35.96 18.33 37.54Q19.58 39.11 20.34 41.20Q21.09 43.29 21.09 46.29Q21.09 52.34 18.86 55.77Q16.63 59.20 11.08 59.20Z"/></g></g></svg>